<mxfile host="Electron" modified="2023-08-12T22:35:31.838Z" agent="Mozilla/5.0 (Windows NT 10.0; Win64; x64) AppleWebKit/537.36 (KHTML, like Gecko) draw.io/21.6.8 Chrome/114.0.5735.289 Electron/25.5.0 Safari/537.36" etag="HIsmFfol0sOmw1iMXUia" version="21.6.8" type="device">
  <diagram name="diagram" id="4mdX3Jrm9HCPqdN3fcV9">
    <mxGraphModel dx="2462" dy="997" grid="1" gridSize="10" guides="1" tooltips="1" connect="1" arrows="1" fold="1" page="1" pageScale="1" pageWidth="1169" pageHeight="827" math="0" shadow="0">
      <root>
        <mxCell id="0" />
        <mxCell id="1" parent="0" />
        <mxCell id="ZejM4U1-Lfs7wTc2lEzZ-3" value="" style="group" vertex="1" connectable="0" parent="1">
          <mxGeometry x="220" y="347" width="90" height="110" as="geometry" />
        </mxCell>
        <mxCell id="ZejM4U1-Lfs7wTc2lEzZ-1" value="SQL Server" style="shape=cylinder3;whiteSpace=wrap;html=1;boundedLbl=1;backgroundOutline=1;size=15;" vertex="1" parent="ZejM4U1-Lfs7wTc2lEzZ-3">
          <mxGeometry x="5" width="60" height="80" as="geometry" />
        </mxCell>
        <mxCell id="ZejM4U1-Lfs7wTc2lEzZ-2" value="Producs &amp;amp; Stock" style="text;html=1;align=center;verticalAlign=middle;resizable=0;points=[];autosize=1;strokeColor=none;fillColor=none;" vertex="1" parent="ZejM4U1-Lfs7wTc2lEzZ-3">
          <mxGeometry x="-20" y="80" width="110" height="30" as="geometry" />
        </mxCell>
        <mxCell id="ZejM4U1-Lfs7wTc2lEzZ-4" value="" style="group" vertex="1" connectable="0" parent="1">
          <mxGeometry x="220" y="527" width="70" height="115" as="geometry" />
        </mxCell>
        <mxCell id="ZejM4U1-Lfs7wTc2lEzZ-5" value="MongoDB" style="shape=cylinder3;whiteSpace=wrap;html=1;boundedLbl=1;backgroundOutline=1;size=15;" vertex="1" parent="ZejM4U1-Lfs7wTc2lEzZ-4">
          <mxGeometry x="5" width="60" height="80" as="geometry" />
        </mxCell>
        <mxCell id="ZejM4U1-Lfs7wTc2lEzZ-6" value="Orders" style="text;html=1;align=center;verticalAlign=middle;resizable=0;points=[];autosize=1;strokeColor=none;fillColor=none;" vertex="1" parent="ZejM4U1-Lfs7wTc2lEzZ-4">
          <mxGeometry x="5" y="80" width="60" height="30" as="geometry" />
        </mxCell>
        <mxCell id="ZejM4U1-Lfs7wTc2lEzZ-8" style="edgeStyle=orthogonalEdgeStyle;rounded=0;orthogonalLoop=1;jettySize=auto;html=1;entryX=0;entryY=0.5;entryDx=0;entryDy=0;entryPerimeter=0;" edge="1" parent="1" source="ZejM4U1-Lfs7wTc2lEzZ-7" target="ZejM4U1-Lfs7wTc2lEzZ-1">
          <mxGeometry relative="1" as="geometry" />
        </mxCell>
        <mxCell id="ZejM4U1-Lfs7wTc2lEzZ-7" value="Warehouse&lt;br&gt;Management&lt;br&gt;Context" style="rounded=1;whiteSpace=wrap;html=1;" vertex="1" parent="1">
          <mxGeometry x="30" y="357" width="120" height="60" as="geometry" />
        </mxCell>
        <mxCell id="ZejM4U1-Lfs7wTc2lEzZ-10" style="edgeStyle=orthogonalEdgeStyle;rounded=0;orthogonalLoop=1;jettySize=auto;html=1;entryX=0;entryY=0.5;entryDx=0;entryDy=0;entryPerimeter=0;" edge="1" parent="1" source="ZejM4U1-Lfs7wTc2lEzZ-9" target="ZejM4U1-Lfs7wTc2lEzZ-5">
          <mxGeometry relative="1" as="geometry" />
        </mxCell>
        <mxCell id="ZejM4U1-Lfs7wTc2lEzZ-9" value="Orders&lt;br&gt;Management&lt;br&gt;Context" style="rounded=1;whiteSpace=wrap;html=1;" vertex="1" parent="1">
          <mxGeometry x="30" y="537" width="120" height="60" as="geometry" />
        </mxCell>
        <mxCell id="ZejM4U1-Lfs7wTc2lEzZ-11" value="SFTP&lt;br&gt;Clients" style="ellipse;whiteSpace=wrap;html=1;aspect=fixed;" vertex="1" parent="1">
          <mxGeometry x="215" y="680" width="80" height="80" as="geometry" />
        </mxCell>
        <mxCell id="ZejM4U1-Lfs7wTc2lEzZ-13" style="edgeStyle=orthogonalEdgeStyle;rounded=0;orthogonalLoop=1;jettySize=auto;html=1;entryX=0;entryY=0.5;entryDx=0;entryDy=0;" edge="1" parent="1" source="ZejM4U1-Lfs7wTc2lEzZ-12" target="ZejM4U1-Lfs7wTc2lEzZ-11">
          <mxGeometry relative="1" as="geometry" />
        </mxCell>
        <mxCell id="ZejM4U1-Lfs7wTc2lEzZ-12" value="Vendors&lt;br&gt;Context" style="rounded=1;whiteSpace=wrap;html=1;" vertex="1" parent="1">
          <mxGeometry x="30" y="690" width="120" height="60" as="geometry" />
        </mxCell>
        <mxCell id="ZejM4U1-Lfs7wTc2lEzZ-14" value="CSV Files&lt;br&gt;Vendor&#39;s data" style="text;html=1;strokeColor=none;fillColor=none;align=center;verticalAlign=middle;whiteSpace=wrap;rounded=0;" vertex="1" parent="1">
          <mxGeometry x="198" y="770" width="112" height="30" as="geometry" />
        </mxCell>
        <mxCell id="ZejM4U1-Lfs7wTc2lEzZ-16" style="edgeStyle=orthogonalEdgeStyle;rounded=0;orthogonalLoop=1;jettySize=auto;html=1;entryX=1;entryY=0.5;entryDx=0;entryDy=0;entryPerimeter=0;" edge="1" parent="1" source="ZejM4U1-Lfs7wTc2lEzZ-15" target="ZejM4U1-Lfs7wTc2lEzZ-1">
          <mxGeometry relative="1" as="geometry">
            <Array as="points">
              <mxPoint x="350" y="567" />
              <mxPoint x="350" y="387" />
            </Array>
          </mxGeometry>
        </mxCell>
        <mxCell id="ZejM4U1-Lfs7wTc2lEzZ-18" style="edgeStyle=orthogonalEdgeStyle;rounded=0;orthogonalLoop=1;jettySize=auto;html=1;entryX=1.01;entryY=0.59;entryDx=0;entryDy=0;entryPerimeter=0;" edge="1" parent="1" source="ZejM4U1-Lfs7wTc2lEzZ-15" target="ZejM4U1-Lfs7wTc2lEzZ-11">
          <mxGeometry relative="1" as="geometry">
            <Array as="points">
              <mxPoint x="350" y="567" />
              <mxPoint x="350" y="730" />
              <mxPoint x="296" y="730" />
            </Array>
          </mxGeometry>
        </mxCell>
        <mxCell id="ZejM4U1-Lfs7wTc2lEzZ-22" style="edgeStyle=orthogonalEdgeStyle;rounded=0;orthogonalLoop=1;jettySize=auto;html=1;entryX=0;entryY=0.5;entryDx=0;entryDy=0;entryPerimeter=0;" edge="1" parent="1" source="ZejM4U1-Lfs7wTc2lEzZ-15" target="ZejM4U1-Lfs7wTc2lEzZ-24">
          <mxGeometry relative="1" as="geometry">
            <mxPoint x="600" y="567" as="targetPoint" />
          </mxGeometry>
        </mxCell>
        <mxCell id="ZejM4U1-Lfs7wTc2lEzZ-15" value="Sync &lt;br&gt;Process" style="rounded=1;whiteSpace=wrap;html=1;" vertex="1" parent="1">
          <mxGeometry x="410" y="537" width="120" height="60" as="geometry" />
        </mxCell>
        <mxCell id="ZejM4U1-Lfs7wTc2lEzZ-17" style="edgeStyle=orthogonalEdgeStyle;rounded=0;orthogonalLoop=1;jettySize=auto;html=1;entryX=1;entryY=0.5;entryDx=0;entryDy=0;entryPerimeter=0;exitX=0;exitY=0.5;exitDx=0;exitDy=0;" edge="1" parent="1" source="ZejM4U1-Lfs7wTc2lEzZ-15" target="ZejM4U1-Lfs7wTc2lEzZ-5">
          <mxGeometry relative="1" as="geometry">
            <mxPoint x="410" y="577" as="sourcePoint" />
            <mxPoint x="295" y="397" as="targetPoint" />
          </mxGeometry>
        </mxCell>
        <mxCell id="ZejM4U1-Lfs7wTc2lEzZ-19" value="Get data from several data sources and unify data&amp;nbsp;&amp;nbsp;" style="text;html=1;strokeColor=none;fillColor=none;align=center;verticalAlign=middle;whiteSpace=wrap;rounded=0;fontSize=11;" vertex="1" parent="1">
          <mxGeometry x="395" y="477" width="150" height="60" as="geometry" />
        </mxCell>
        <mxCell id="ZejM4U1-Lfs7wTc2lEzZ-26" style="edgeStyle=orthogonalEdgeStyle;rounded=0;orthogonalLoop=1;jettySize=auto;html=1;entryX=1;entryY=0.5;entryDx=0;entryDy=0;entryPerimeter=0;" edge="1" parent="1" source="ZejM4U1-Lfs7wTc2lEzZ-20" target="ZejM4U1-Lfs7wTc2lEzZ-24">
          <mxGeometry relative="1" as="geometry" />
        </mxCell>
        <mxCell id="ZejM4U1-Lfs7wTc2lEzZ-30" style="edgeStyle=orthogonalEdgeStyle;rounded=0;orthogonalLoop=1;jettySize=auto;html=1;entryX=0;entryY=0.5;entryDx=0;entryDy=0;entryPerimeter=0;" edge="1" parent="1" source="ZejM4U1-Lfs7wTc2lEzZ-20" target="ZejM4U1-Lfs7wTc2lEzZ-28">
          <mxGeometry relative="1" as="geometry" />
        </mxCell>
        <mxCell id="ZejM4U1-Lfs7wTc2lEzZ-20" value="Pack&lt;br&gt;Builder" style="rounded=1;whiteSpace=wrap;html=1;" vertex="1" parent="1">
          <mxGeometry x="740" y="537" width="120" height="60" as="geometry" />
        </mxCell>
        <mxCell id="ZejM4U1-Lfs7wTc2lEzZ-24" value="Market&lt;br&gt;DB" style="shape=cylinder3;whiteSpace=wrap;html=1;boundedLbl=1;backgroundOutline=1;size=15;" vertex="1" parent="1">
          <mxGeometry x="600" y="527" width="60" height="80" as="geometry" />
        </mxCell>
        <mxCell id="ZejM4U1-Lfs7wTc2lEzZ-25" value="Products&lt;br&gt;Vendors" style="text;html=1;align=center;verticalAlign=middle;resizable=0;points=[];autosize=1;strokeColor=none;fillColor=none;" vertex="1" parent="1">
          <mxGeometry x="600" y="617" width="70" height="40" as="geometry" />
        </mxCell>
        <mxCell id="ZejM4U1-Lfs7wTc2lEzZ-33" value="build multiple packs&lt;br&gt;for each record" style="text;html=1;align=center;verticalAlign=middle;resizable=0;points=[];autosize=1;strokeColor=none;fillColor=none;" vertex="1" parent="1">
          <mxGeometry x="730" y="487" width="130" height="40" as="geometry" />
        </mxCell>
        <mxCell id="ZejM4U1-Lfs7wTc2lEzZ-28" value="Packs&lt;br&gt;DB" style="shape=cylinder3;whiteSpace=wrap;html=1;boundedLbl=1;backgroundOutline=1;size=15;" vertex="1" parent="1">
          <mxGeometry x="956" y="527" width="60" height="80" as="geometry" />
        </mxCell>
        <mxCell id="ZejM4U1-Lfs7wTc2lEzZ-29" value="approx. 10 million records&lt;br&gt;packs" style="text;html=1;align=center;verticalAlign=middle;resizable=0;points=[];autosize=1;strokeColor=none;fillColor=none;" vertex="1" parent="1">
          <mxGeometry x="875" y="617" width="160" height="40" as="geometry" />
        </mxCell>
        <mxCell id="ZejM4U1-Lfs7wTc2lEzZ-34" value="Requirements" style="text;html=1;strokeColor=none;fillColor=none;align=left;verticalAlign=middle;whiteSpace=wrap;rounded=0;fontStyle=1;fontSize=14;" vertex="1" parent="1">
          <mxGeometry x="20" y="40" width="160" height="30" as="geometry" />
        </mxCell>
        <mxCell id="ZejM4U1-Lfs7wTc2lEzZ-35" value="Query packs FAST&lt;br&gt;Resilience sync process&lt;br&gt;Resilience pack builder&lt;br&gt;High Scalability&lt;br&gt;24/7 Availability&lt;br&gt;Monitoring &amp;amp; Tracking&lt;br&gt;Digital Behavior | Heatmaps" style="text;html=1;strokeColor=none;fillColor=none;align=left;verticalAlign=middle;whiteSpace=wrap;rounded=0;" vertex="1" parent="1">
          <mxGeometry x="20" y="70" width="150" height="130" as="geometry" />
        </mxCell>
        <mxCell id="ZejM4U1-Lfs7wTc2lEzZ-43" value="" style="strokeWidth=1;shadow=0;dashed=0;align=center;html=1;shape=mxgraph.mockup.containers.browserWindow;rSize=0;strokeColor=#666666;strokeColor2=#008cff;strokeColor3=#c4c4c4;mainText=,;recursiveResize=0;" vertex="1" parent="1">
          <mxGeometry x="510" y="14" width="630" height="400" as="geometry" />
        </mxCell>
        <mxCell id="ZejM4U1-Lfs7wTc2lEzZ-44" value="Page 1" style="strokeWidth=1;shadow=0;dashed=0;align=center;html=1;shape=mxgraph.mockup.containers.anchor;fontSize=17;fontColor=#666666;align=left;whiteSpace=wrap;" vertex="1" parent="ZejM4U1-Lfs7wTc2lEzZ-43">
          <mxGeometry x="60" y="12" width="110" height="26" as="geometry" />
        </mxCell>
        <mxCell id="ZejM4U1-Lfs7wTc2lEzZ-45" value="https://www.draw.io" style="strokeWidth=1;shadow=0;dashed=0;align=center;html=1;shape=mxgraph.mockup.containers.anchor;rSize=0;fontSize=17;fontColor=#666666;align=left;" vertex="1" parent="ZejM4U1-Lfs7wTc2lEzZ-43">
          <mxGeometry x="130" y="60" width="250" height="26" as="geometry" />
        </mxCell>
        <mxCell id="ZejM4U1-Lfs7wTc2lEzZ-46" value="" style="strokeWidth=1;shadow=0;dashed=0;align=center;html=1;shape=mxgraph.mockup.containers.marginRect2;rectMarginLeft=67;strokeColor=#666666;gradientColor=none;whiteSpace=wrap;" vertex="1" parent="ZejM4U1-Lfs7wTc2lEzZ-43">
          <mxGeometry x="16" y="120" width="244" height="250" as="geometry" />
        </mxCell>
        <mxCell id="ZejM4U1-Lfs7wTc2lEzZ-47" value="Summary" style="strokeColor=inherit;fillColor=inherit;gradientColor=inherit;strokeWidth=1;shadow=0;dashed=0;align=center;html=1;shape=mxgraph.mockup.containers.rrect;rSize=0;fontSize=12;fontColor=#666666;" vertex="1" parent="ZejM4U1-Lfs7wTc2lEzZ-46">
          <mxGeometry width="60" height="25" relative="1" as="geometry">
            <mxPoint y="10" as="offset" />
          </mxGeometry>
        </mxCell>
        <mxCell id="ZejM4U1-Lfs7wTc2lEzZ-48" value="My Info" style="strokeWidth=1;shadow=0;dashed=0;align=center;html=1;shape=mxgraph.mockup.containers.rrect;rSize=0;fontSize=12;fontColor=#ffffff;strokeColor=#008cff;fillColor=#008cff;" vertex="1" parent="ZejM4U1-Lfs7wTc2lEzZ-46">
          <mxGeometry width="60" height="25" relative="1" as="geometry">
            <mxPoint y="40" as="offset" />
          </mxGeometry>
        </mxCell>
        <mxCell id="ZejM4U1-Lfs7wTc2lEzZ-49" value="Addresses" style="strokeColor=inherit;fillColor=inherit;gradientColor=inherit;strokeWidth=1;shadow=0;dashed=0;align=center;html=1;shape=mxgraph.mockup.containers.rrect;rSize=0;fontSize=10;fontColor=#666666;" vertex="1" parent="ZejM4U1-Lfs7wTc2lEzZ-46">
          <mxGeometry width="60" height="25" relative="1" as="geometry">
            <mxPoint y="70" as="offset" />
          </mxGeometry>
        </mxCell>
        <mxCell id="ZejM4U1-Lfs7wTc2lEzZ-50" value="" style="strokeWidth=1;shadow=0;dashed=0;align=center;html=1;shape=mxgraph.mockup.containers.leftButton;rSize=5;strokeColor=#008cff;fillColor=#008cff;resizeHeight=1;movable=0;deletable=0;" vertex="1" parent="ZejM4U1-Lfs7wTc2lEzZ-46">
          <mxGeometry width="7" height="250" relative="1" as="geometry">
            <mxPoint x="60" as="offset" />
          </mxGeometry>
        </mxCell>
        <mxCell id="ZejM4U1-Lfs7wTc2lEzZ-51" value="" style="verticalLabelPosition=bottom;shadow=0;dashed=0;align=center;html=1;verticalAlign=top;strokeWidth=1;shape=mxgraph.mockup.containers.userFemale;strokeColor=#666666;strokeColor2=#008cff;" vertex="1" parent="ZejM4U1-Lfs7wTc2lEzZ-46">
          <mxGeometry x="93.99878787878788" y="12.5" width="115.13287878787878" height="98.61111111111111" as="geometry" />
        </mxCell>
        <mxCell id="ZejM4U1-Lfs7wTc2lEzZ-52" value="Juan Perez" style="text;html=1;strokeColor=none;fillColor=none;align=center;verticalAlign=middle;whiteSpace=wrap;rounded=0;" vertex="1" parent="ZejM4U1-Lfs7wTc2lEzZ-46">
          <mxGeometry x="117.85786283891548" y="111.11111111111111" width="67.42105263157895" height="27.77777777777778" as="geometry" />
        </mxCell>
        <mxCell id="ZejM4U1-Lfs7wTc2lEzZ-53" value="&lt;b&gt;Category&lt;/b&gt;: Premiun" style="text;html=1;strokeColor=none;fillColor=none;align=left;verticalAlign=middle;whiteSpace=wrap;rounded=0;" vertex="1" parent="ZejM4U1-Lfs7wTc2lEzZ-46">
          <mxGeometry x="94.24611244019138" y="138.88888888888889" width="114.8886842105263" height="27.77777777777778" as="geometry" />
        </mxCell>
        <mxCell id="ZejM4U1-Lfs7wTc2lEzZ-54" value="&lt;b&gt;Age&lt;/b&gt;: 38 years" style="text;html=1;strokeColor=none;fillColor=none;align=left;verticalAlign=middle;whiteSpace=wrap;rounded=0;" vertex="1" parent="ZejM4U1-Lfs7wTc2lEzZ-46">
          <mxGeometry x="93.99565789473691" y="157.40740740740742" width="114.8886842105263" height="27.77777777777778" as="geometry" />
        </mxCell>
        <mxCell id="ZejM4U1-Lfs7wTc2lEzZ-55" value="&lt;b&gt;Phone&lt;/b&gt;: xxxx xxxxx xxxxxx" style="text;html=1;strokeColor=none;fillColor=none;align=left;verticalAlign=middle;whiteSpace=wrap;rounded=0;" vertex="1" parent="ZejM4U1-Lfs7wTc2lEzZ-46">
          <mxGeometry x="93.99565789473691" y="185.1851851851852" width="114.8886842105263" height="27.77777777777778" as="geometry" />
        </mxCell>
        <mxCell id="ZejM4U1-Lfs7wTc2lEzZ-57" value="" style="rounded=0;whiteSpace=wrap;html=1;" vertex="1" parent="ZejM4U1-Lfs7wTc2lEzZ-43">
          <mxGeometry x="490" y="120" width="120" height="270" as="geometry" />
        </mxCell>
        <mxCell id="ZejM4U1-Lfs7wTc2lEzZ-58" value="" style="rounded=0;whiteSpace=wrap;html=1;" vertex="1" parent="ZejM4U1-Lfs7wTc2lEzZ-43">
          <mxGeometry x="270" y="120" width="200" height="250" as="geometry" />
        </mxCell>
        <mxCell id="ZejM4U1-Lfs7wTc2lEzZ-59" value="Basket" style="text;html=1;strokeColor=none;fillColor=none;align=center;verticalAlign=middle;whiteSpace=wrap;rounded=0;fontStyle=1;fontSize=15;" vertex="1" parent="ZejM4U1-Lfs7wTc2lEzZ-43">
          <mxGeometry x="285" y="130" width="60" height="30" as="geometry" />
        </mxCell>
        <mxCell id="ZejM4U1-Lfs7wTc2lEzZ-60" value="" style="shape=image;verticalLabelPosition=bottom;labelBackgroundColor=default;verticalAlign=top;aspect=fixed;imageAspect=0;image=data:image/png,iVBORw0KGgoAAAANSUhEUgAAAQ8AAAD6CAYAAAC/B8IgAAAAAXNSR0IArs4c6QAAAARnQU1BAACxjwv8YQUAAAAJcEhZcwAADsMAAA7DAcdvqGQAAFxDSURBVHhe7Z0FgFxF1oVPe/d4Jp6Ju3uQECTYIovvwgKLL7ALZHH/YRdWcJdFgwYJmkACBAsJnoQkxBPiMhMZt/b+76nuN3R6ZiIdBe4XHtP9pJ503VO36lXdssUEKIqibCf2xF9FUZTtQsVDUZS0UPFQFCUtVDwURUkLFQ9FUdJCxUNRlLRQ8VAUJS1UPBRFSQsVj91EKBRCTU1N3edIJGI+7wqi0ag5x66gurp6q9ceDAbBvoe8jsrKyl16r8qeQ8VjN/H1V1/h1ltvhd/vx3/+8x98+umniS07n6VLl+L222/fJQJyxeWXY9myZYlvDXPVlVdiw4YNWLFiBf585pnmepRfH45/ConPyi4kNzcXvXv3hsvlwjPPPIO8vDwMHjzYbFu/fr0xNhq7z+cz6/idngq3WZ7KunXrUFVVhczMTNjtm+s+91m5ciWKioqwQY6ZMGECTjr5ZDgcDmzcuNGkEwgETPo8lt5BYWGhOUdGRgZsNpsRtjVr1qCivBx2Oc7j8Zh0uV9tbS28Xi+6d++O9u3bm+/lsh8XXivT5PZNmzbhoYcewrB99kGXLl3Qv39/dOrUydx3WVkZ1q5da47ldfDaKioqzFIsx5XKdq53Op2Ju1L2ZnRsy27ik08+wUQx6JNPOQXXXH01WrRogdHPPYfZs2fj3nvuMQZDN/8q2XbggQeafZYvX45wOGwMjwZeUlKCkHy/6qqrcNxxxyVSjvPAAw/g7bfeMulaIvHymDGYNXMm/vWvfxlxoABddPHFOPHEE/GsCNg777wD/vj0UoYMGWI8og8/+ABNmjRBs2bNcMedd5q0Lvnb30x6jzz6KK655hqz/zdff41XXnmlTnTy8/Nx73334fXXXsPYsWPN8Q+KiIy67DI89vjjZvvl4rUUiRDxfg466CBzr2/JNb8i10nxoRCddtppuOTSS+M3pezVaLVlN0ERoJHR22BJTCOhgf3vf//DMccei7tFQE499VT8TwyNes59+w8YgPdFcNq2awevGO+EiRMxRI7/9ptvEqnGWbJkCd55+208/PDDGPvGGxg5cmRiC/Diiy+il3g8d919N/52ySV4WAy6Ukr6mbNmoXefPrhMDLVly5aYM2cOvpw6FW+KMTONAXJueiG8FrZzXCLHtmrVCrXiqVhtKqWlpXhIzvnuuHHIysrCgw8+iGuuvdYI3ZNPPWXOT8+G+996yy0oKCjARBGn//73v5go9zJ//nyTDj2QN958E6NGjcK3335rjlP2flQ89iAUlFVS1Xj/vfdw5RVX4NVXX0VxcXFiK9BZRIaGRfe/Z8+epsSmUdeI25/MWjFyGm/rNm3M/iPEc7FYvXo1Zv7wg2mHePSRR4z3sV6qGTfffLPZlwY/ffp0zJs3Dx06dDBCwurH5XI99EYsBgwcmPj0M6x6UQh57q5du2KjpNuQI0vxmDFjhrl2t9uNgYMGmWNYjSE8llUkVusomsovAxWPPQirKjSow484wlQRzj//fFx/ww2JrVKnTLRr2KVqwOoBMX9TDJQeBEWB3sd3332H0c8+m9gC9JFtffv2xX/vuAN/l2rDZVK6s82CVZxBYsSs5lA4WI2g0LBqxdL/+uuuww8iOhapbSyE7RtvyzmnTpmC6SIOFK2G9uO6E044AR9PmmSqOy+//LIRzo4dO9Ztt/5qHfqXg4rHHuaft92G+WK8bBugS9+tW7fElm2HAsBqyZvi+rOthGJhcd3115vGUbY3vPzSS+gjpTtL/87izTzz9NPGYE8//XS0Ea/lCvE22D7yf+KVME0Kz5ag5zFGhOB6OcdgESKKX2OwOsPq09VyfS88/7y5b0s8lF8m2mC6l8CGSbruOwLbD7iwzSEVVgdYHUmG3grFw/JqCI9nlqDAbInnn3sO70l1i+0jbBPJzs7eLJ3G4H3ynKyCKb9s1PPYS9hR4SDWW5mGSBUOwjaPVINnGlsTDtKjZ08cdfTRJo2cnJxtEg7C+1Th+HWgnoeiKGmhnoeiKGmh4qEoSlqoeCiKkhYqHoqipIWKh6IoaaHioShKWthCoZC+qlUUZbuxRaNRFQ9FUbYb7SSmKEpaaJuHoihpoeKhKEpaqHgoipIWKh6KoqSFioeiKGmh4qEoSlps9qqW82/UVlcnvgk281+CpGAvm62Xz7Z4jE0mlLw+lZhsjW9PeTucCCRjj0VRXVmGYHUV3I74vpw/xOZwwe6SxR5fZx3Nz3IDiEWjJq4no2BFopF4YB2myYXbzZm5sw1R+R6V89h9+WjfsRPXKoqSBvXEo6p4oxECa7FI/p66jYF8rXlHktcTsy8NWP7K1rggyP9sYsA28XvYRS0qH7ifM1SFBdO+QunKxWiZ5YJLtnt82XBm5cGTkwe31y3HR414cH+HfLBFwogFw4iGgigrK0ZNbQ1atGmNmJzEXI91DRQehx1hWVddG4Cn+0i079KDl6goShrUq7akGj9JXtfQ9sZI3ZfSYa2zUTliPH38EuwiBJEaP6pKS+BxOeD1eeDLyIDb54XLGw9dVxdvM7FEmRTTcToQE2GgCHkzM2B3coKjIALBGgTDAURiYXOc3e4S0XLL3ww5zGHOqyhKetQTD5Js9KkCQBrb3tC+ceLr7ba4k0OjD8silQ3xSGS9iILUPRBglaWiHD63W8TCDYdUP2zy2eH2wGHiXlI8uK/5T5CqkoiAzSFej3gWfvE+fBQPph0OwhYNiUci4mEmFnLBafMhFHZKVShT0lHxUJQdoZ54WALAv6nC0NC65L+NQUPfbA96HKIaphrDY1lzEmMvXL4MTqmGeFxi4OJNsJ3DRo+D7R7G65DjonHvg3OZmKRkiUhVJBiKmH2oQ0F/jUkvGgwgHKgREYnI/g5E4IA/4oDD1ySelqIoabNNFrQ1cUimoX1Ne0NCPuq2ijHbbE6z3h4NIyYewtqli+BxAi6pgrA6YnNTRGQfERJrAiTT9Cmui3FiojFEwhGEgiH4a2qR4csQjyOMYG0tYpEIwrUiIsEgnLJvSPar9PtRLvs279CR7o5Jb3fBSY4uu+wy3HD99Yk1u4Z5c+fiwBEjzBSUyXCahfvuvdfMGrczOOTgg00bWSpff/21mdt208aNOGD4cDM37ZYYP24cjj3mmMS3Xc91116LW265JfGtYV5//XUMHTLENMDvCk468UR8kzJl6Na4+667cPJJJ5nf8dJLLzVz7qTCOXcuuuiixLfNOevPf8b48eMT33YODVpQsgDUfU4RBa63luTvqZ9JLHEaNpxas53JHvEGTREAikdx4RrEgrXwipfhlIXVFJvdLeIhfyWtWCwSP04+mxnUJBm2k4hVIlhTg0hABCPkl0WEKBxFKBCQc9nhiDkRCEVRWRtASa0fHXr3RsjtkmuKX8dvhU8/+cTM7tZhF060xNn1OeE259Vle9XexK4Sgh2BBQqXXcHumLaz0eI3VQA2l47tg2bKtg2mEX+hG9cQzg9il8qLQ6oVG9eugFNcBNEKEQ62Y8g2hwsOh3ge4iXwpVDdiyFzXTERn4h4GgERjhojHOKGSDUliGAgLJ4GT+hFEG7URp3YVFmL5u06ICM3D2G7Q47ekTvafn766SfM+fFHfPf992ZS6bBk5pdeegnHHnsszj77bFOSXHThhWbfWbNm4YwzzjATQldVVZlJlR566CH86bTT6ia55rPgHLdHH3UUzj3nHEydOtWIcUOwtHr//ffNZ77G/vLLL03py9nbOPM+54z9x6234sgjjsAt//d/WLt2rdl3woQJZvJpzqPLbW+9+aY5B+e55QTWXJ/sfXwlXsc6OdaTMu8Lr3XN6tVmRrnfHXmkmdnuQrnXH+V5PC33zWt4PDHBtwXT5zy6Z8pzmPz552YdDY0z8//+97/HWWedheeeew7nnXuuOf5c+XvXnXea6+TseJWVleaYiooKXCveBr0gprVRPCILTpd53XXX4fDDDsNjjz6K22+7zczrm0yheE5/E0/q8r//HUVFRYm1P2PSkPRHHnII/p60D+/liy++wAnHH48zTj8dn8s9JP8+nB+Yz4LHffjBB3X3zmfyZ/ESfi/5YsqUKfjbX/9q1lt89NFHmCv5h8+Qv3kq1ZJfzpH8dPBBB+Fft99uZgtMhnmL+Y3XyXxx9913101PynmSb7jhBhwhz/B2OZYTmW+JeuKRLBgkWURS/1okf7f2txa+ov0Z8TTkq0iD+cvXq2yPcEKqFKUbjXg43LKV1ZRE/w6HS0SEScSi8oBlkc9Mk486JscG/dWIRvzwuMTLkG1hVldkp1DUgRoRjQ0BG6ptPnTtNxRNWrRBxLzhYYK7l9zcXDRt2hStWrY0f8eJu/7kE0/gsEMPRf9+/TBmzBgsXrzYlBhXSOYf0L8/Nqxfj2XLlhkX98033sCBkiFoPNzn008/NTPsn/KHP2B/MYx//uMfJuM1BH+HzKws88aqaX4+ysVD+GDiRDRv3hw+8RLuuOMOI2icuX/dunXGGJjpisUwponYtW3bFkdIRr/vvvtM5ttvv/3Mq3nOTcvjLThrHCeBsibctli2dKkRQ5/Xi3PEyFktWLxokemfw8mtOSFVv759zXVaUOw4ny4nxf5AjIsiypn1H3/sMVNlGjhgAF568UUsXLjQiAoNip8pUEz73nvuMQb55JNPmqocBaWfPFPuQ6znTFGjEM2cOdOkb4mOxc033STVYR9y8/Iwbdq0xNqf+bdUFVauXInzL7gAtSJ4d4jgUyRo5DTeAw44wEwYTlHmb24x7t13ccFf/oLjjjsO98i1fvXVVyYdThfKqT5PkioKqyq8rmQ4zzDzDycH5xShqbCQ6if56YorrzRp3iPiQJGw4HNcuGCB+X35fDg/MQWSz5BVaortX+ReCiUf3CZimnxsKluttlhY6xr72zg/G6tIhqlqsKmUZb88ZbicdpRuKkJVebF4HXbYZGFjaYxtIuIhxDuG8XjxFeQPxYNqYt7YxEJyc1TWkHgp4oXI53A4hIA8iFDEjqDLh3YDhqHfAYfCk9tC0s2UlMSTkUTiV7T7oKG2KSgwM9HzR580aRIOkxLvKsksnMeVwkBoSAVirIvEAE4VY+bs+Pli8HzO/CFvuPFG4z08N3q02Y/zxTIzMc0JCe8iFb7N6iCZjrPJ9UnMY8vPLJGZaaZICXmvCAMz8/9E0JiZWGoSXvfZ4tnQwDgz3MoVK0yGp9d4yimnGMGw6Ny5sxGT/fbdd7MZ6jhhNo2V104RoddBWL2hcfFarPu34Gz9vGeK1JVXXYXMzExTQh8iJTWf19XXXINDRXgteI9/lmv8k5TygwcPNt4Tqyqff/aZmeD7TCnNWapa8+/Onz8fy5cvN+soaA+Il5MseBbdunc3+w0bNgwjR45MrI1DQ+PE4o+I18Lnw2fH6+J56RXSwPn7cuF5P/n44zoPg9fKZzFKvJW27dphkogN7y9LRJ5Gy9/i/0RwUr3JXr16GXEeOHAgunTpklj7M8wLl4tHyPmHjz7mGCM+FIytwfzGCc8pPA555sOlQPru229RW1ub2KM+jXoe/Jv8uSEaW1+HsXSS+Ct/aPTWaraLbly3FlM/+0TsPygZRYSDPyAbS2VhhuA/KxU2dHAedZ6WDzUq1RSqEcUoyoZTWReSxKN2D/ILOqD3sAOQ364LAg4PIk6veB2SdlQ8FFn2NDQmljAWuWKYFvfffz+GDh2Km8TY6CHwB+U6VnsukJKVLidLDDZG0nXlkk+vplWrRApbp5mIAo3FcuOZaYlDnjmN2XrmNF56LFy4f6obvC3QmJhXKACE3s/WYOalp0OP4rJLL8V68cL4zChmFvQGLJhXvOxZLGSJoFFoaaicGzdZyKxpPbme92Z957Ule1EWrLad9qc/mWoNl2RoWDyvdV9Mj54B4Tamx+2892bNmm1mL5bo8pny2XL/msQxloixcNiqjaXAe7WO52/K55DsPVjbrDYgFh6E+YA2RaFnfpo+Ywb2kUJgS793o1ZkqgUJlUwl9YZM46VkN2thQ2UkzF6l8s00iEbMMTGH0/TvkJ9V9hNPobYSUyZKaSnKmCFpSBYVj0T+yb4Oe9Q0jFJomE789S4rPPwbZb8wxMIBIBiQ6k9YbjKCmqANYU8TNO86CC17DoUts5lcmFukRSRHfkQjXDzOtLTuWYaIOLwrruvkyZMxVeq2rN8SisL1Ug/vJKU4S6ulUm3hfnT1fy8lPuuhrJueeuqpJrP++cwzcaYseVItOmDECJPG9tCpUyfTiHqXuMh0y1l6MsMMF4/Agr/d9mbiZLp262by0muvvorZs2djjFS9tsarsu/zzz+PE0480dxvlVQnhu2zj6nOsP2AGfwzqbptRuIak6+UHsP/Hn/ctGWw2mBV7bqLR+EUo3197FhTOnMftv0kQ4FhW0dEDOyoo46q9waL3hE9yf/8+991aYy67DLzrHheejesvnzyySfmevtLtcl6ji++8IJ5M8Wq0grxbPjbDd9/f6xZs8b83mwTufPOOxu1wcag1/iWVPe+l+omPZmO8tsme4cUbgoa8xufCauUhJ4MPdw+Uo28ULyewVJd7Nmjh6luN0aj4sFbTM0w5ru1zlh1wqjjK+RGo0bJbGKcdrZBcHGwqiLVFKmCBEIR4xI5YiIc1WX4bPybWL9yMbxi0Fxvqinyj+cxp+EpxOL5+Hg6rreLkDhkCQd5Hg+q/WHTd6MiJOuzm6OgWx+06NgVIZcXYaebfko8oUQa1rKnYaNYX6lCsJ55o3gYHcWICasfFBbW2VkH5ms91pnZFsE6MKsKPeRHvejii3Gw1P2vETf5/26+2VRfKATbC58pX/Gx5KGhvPP22+Z7YxNmpwOvny74WDFUehGs/mwNVn0olGxDOPzww9FejJSuODM5qxo3ykKB3RqsFlAk+HqTxs0Jugnde7Y10DW/9JJLMHfuXPNck6FXwraHF1980QjPBRdckNjyM7f+4x/mWKbx9TffmOoGq3TniYfI9igKANujjj/+eJx19tmJo2CqFGx4ZiPviXIONgKzpP/r3/5mXqezPaa7iK7l1WwrfNYUXh5P0bhZnjs9G4suUpVidfipJ5/E9ZL3LG+L+ef+Bx7ADBEUNhBT9CjWlqfSEPXGtvjLS02GIsl/660zRh4XDqcIhEPqINbrT/brCEuyTNop+zhl32BEzJjuQjQEXyyIGZ9/iFlffiZViDAK2hSYnqF5OV7kiNL5crPh9or75s0SUfHEDV7SEnkw4mHja1vxZspKS7Bp4yb4RUgKOnVDfuv2cOc0QdDuQlR+wIhUF+mrNERVbdDUNfc0fKvATJr6I3E9MyG9Cwu+dUnNTGERaz6b5AySLqwbUzRYMu0K6NGw6rEt4kF4X3TnU4WssWe2JdhI3FApSledjaRbmumfHgivJbn6kwy38bexqn7J8J55fHLpb8Fnwe2pz4NVCq7fXuGw4D3Ri6IgNPZb8rfm/STnLws+X4pKY8/Dop54BCrirluyWCR/rvsrFm3EwyZVCPEYjHjYIvKgwqbB0+FkXwpBkreLcDjoBYjRu2IhLJnxNWZNnoRIxQbZJ4J2Yvh2jxv5uVnIFuHIyM6Bi3U/d6bp52HerjAdioc8DL7a5avOTSUVWFdcji49+qJlh04IiFCEbXJuScsfCRtvh+duiL1FPBTll8oWixhLLJKpExAeKcJBYja2b1Dx2ODplrrcdKmPfimKHpZ9MhF1+owausTLKF29DAtnfC+yW4uqigqjrrFYWBRQEuAwfCqlfDQdweQvpc3SN55D/jMeTkSqQhERli59BqB5l56otbGaIi6YrAtFpHrE97siMoqi7BrqiQfFoSHRMJacBA2ZbzrYUSvuGnGFU1ztbLFZD5584mWcdur5eOqZV1AdiJp2iqIVizDji0kIV2wyg9VizgzjXXCoPL0nei88Dwet8RrimsFWi/i56WKx6sNzR2RpIZ5D87YdxeNwIOoSz0aOo5fCqoozKq68HGPdT+qiKMqOUU88LFINLNXc6EnQA3CIx8B5o2KsxthdKN5UjkjUgZzclqiojGD0s2Pw6IOPorJkE777/GPUFK+TakdQ0peTsxOYRwRERMEh3osZAyNLXIto5PQ6uCQ8D/N/Obds5wsmm9uDsAhOWDaYQXayzsG3O7I///ItUOp1K4qyc2hQPCzhSC2pk/+ysSoaocnG2zsoJesKC01r7auvjUVxaSmaN2uJmqoqTJn0ARbNnIZQZQkc4SDsUb5jZm9T8TgcIhziTditDmFsEDXtJ/FzxYVDhMC6Di6yr/g7UkPxGNHgLqb/h1Rl+GaH72fYQhJfFEXZFdQTj1ShSOXn9TRmpzHeoIgI42/U1FRj5aoVOOzQQ/CXv5yPG266Fi3zs9Aqw4H507+Bm7YvZs9OXUZAon65gLAs4m2IiNjtlpDEX8dy74aI8fWwzQW704sYO33J/pQvpsV2GFZ0OH4lLNenKMquoUHPYzMaEZN4dUKMlgYvCwfkVFZWoG+/PmjaPB+ZWV788583I1hThgOH9EauR/yBiAgFA/dIlccW41D5AFx2dviiELjj1RZ6HmaRz/FTbQY9kTDbQW1uOS8jg7FDmXgYTDPhZ0Tl2IhNPCNZZEezTlGUnUs98TBvNCzBkH/sjEnPwLQfJKoQUX4R6CVEomGE2XfDEUVlWSXuf3g07rnvcVx55f+hoqQUHZvnoVmmHdn2ADy2oBGOqHgEsWjMGD/Ee4iyzYMdy/jGxTgc9CNkn/hp6qBwsG3FjIwRwRLl4q4Ce7CyETXuf9DzoJDQy1EUZddQXzwSfykfcQmxEMOVFXX2zNezMUbvoq3b4PG6TO+/kSOPRFVlQEw/iqG9uiDbIx6BHCebTc9SR1RMmi2cfKPi9kLqO0wATqluSDJM2IgGG2EjEZ6Do2l/bvPgQoHwZmWZdhEbhYyCZITFtKRQZcxoXRsbdRPHpy6KouwY9cTD8jpoXsleCD8nD2qz03Ng46R8j4RiqK6NwOt1Y/q3n6Nfj044ZN+eGNStKfJznAiIhxGIuuFxZHIorImKzr4hcInxy2fjZzBxLmL87J7BiGBmcJPpq8HzRLnJGH4oEoLHl4Ege+KFwggEObYlZHrmRUJB04HMWrgudWHvPRUQRdkx6omHNWYsWTQsj8Os42p+p/HJ36hUW1x2t4mT4bCFcc2l5yHXa8PB+3RFl5YedG3XAlX+EGKuDKlEsA1CjouEzcA2lyx8Reuky2Hez3KzeB4iTFEjHOI1yOc4rIrwvPwonorbI+ekrMgiK1mlsjwNeiL0iuKLeh2KsiuoJx7JWAIS9zjkf/GvBpudEcspBWKgHEQiNumK+eH0F5vBbjZ/CTIdYbRr1hwlhRvAMSqBWEiOiSDCfh5i+XbxGOxhMXT5FzCXQoGI/2Pi5q/5j30/4pcaEblggCDTt0OWkJybKZhGGcG0y4iXkvjaoHhwURRlx2hQPCzRIPQ6+N2sos3RNuVLVIw5LIbLPh4ccu9ACMsWzETR0h/RLNtn4jA4HF40yc5H9aZiVFdVmrREOsTdkNPy1awICtsoKCxR+W4aQeWSjG2L9fOUFAHrcrgvDZ9TMUQkMc7TQuourU4cfv6uKMquoZ540FgtozOGyHVivcYgLWMUryEixb4ZZRhmP40I5syYhhXzZyMDQbTKz4bfH0Phpmo4PJlo2TwP8+f+mBAhhwiPCwGnD46cpnD6MhEISdXHKWklxMCczJyZwkCvg93O429RWFXhoLsIr4mqwmMS6hJP3xzBA83nvQ2243CU5e6Cv1lyMJidxe68B2XvpJ54WBjhoBGLdxEJhkx7go3VE1Yz2NEiHIS/vAz+0mI888T/sHrJEmS5ncj02JHlc6Bn30FYsrwQm0rK0LVnV6wtLDJvYcIxD0KuLLTo2R+HnPxHZLVoAZdLvA7J4OZixN5NYyqvgS0atP+EIPA1LdtWTJ8Qs0d8X7OfRWL/+IdGb2+PwPiZDNLCWKWW8TGwTZ0o7wI43JyxQHYmjF/BQDfvvfdeYo3yW6SedfFNRINLIIiAP2CmNKCYOENBRMpL8PVHH+PHGTNRsmEjvK4Mqaq40LNHJ8yZv1BEoxemfDUFZVU16NC9H5as2YSgCEf7PsOw7xEnwNeiLULiOUTYgMorcYg3YRcxoCDIYnkSlAeWnRFjZOwOL54IL9YoSLx68zPxwXHWrdV5IynLnoDhAxmtiUF/rfB3jIPJQDOMKEX4Nuidd97Bs88+a4yUMDYDAx9zH25vCIrRxx9/jDfeeKNOLBhigWkzujjhsQwmzLQYtdxKi5GuGKls1apV5jv59ttvTei/hmAQIwZFbmy78tugnniYTlyJpc77oKXKXw6TZ+wOCsjanxZhybTvkSdViPycPCxdtAylpdVweTPQsmUT1Pr9sn8Ehx0yAhs3lGDxqkJMX7wCOe27YfBBRwDefDmHW/SC7RxsB6H3YE4ki0D7lvMxNoj5wuqObHK5xejYozThnSTDNpU6RJTYH2RPCUVDMNgvnyujNFkh71j1Y5QpK1ANA9EyyO0555xjgvgyGA4jYtNYOaqYMSYbgvtRDPbdd9+6WKaMkcqAwZaXw4BBRx99tNmHwYP5nQLAMH8MXswI6hYMIsy4mw3Be2DYvW7duiXWKL9F6olHRIzXvO5k8yRLacbokL+RiBMVxTWoKFqN5XNnoXjNCjhjIfhcHrRpU4CjjjoCcxYsQq0IglMM/eDhB2D50p/g9rnRsUtHHHvicbjlzjtx8LHHIez2IsqxJ1G2ZzjFk3AjJJ/j703iY1/MWxNenek5xgBA4oFEHLB7vLKPCEoi/OFmGiLXudnXxLe9RUBorBQGhrtbsGCBWcdoYcneEA2dMU7oXXF/GiqFgVHUGXaQRt0QjBrFaOz0HhoTGEKhWLp0qRELwlB/FCYGWeZ8HRYUqsaiUHE992U8Ul6b8tukvnhIHo5GQ6xBwC5FuUfEIBwO47XXxuPNV97FugXfIzNUiSxHCG4XPQMXWubnYFNxIQbvvz/eGD8JmzZUo02TZli7biPKAiIGLmDokP7o1qOnJMr0QghH/GI5UmURowmFonA5ssTYRRzknPFu8HIdcnV8wyLyglhQhIWD4DxZCCfeyrAdxAQNMnsTkYuEEdptjJvKdOJLfPXP3/cEbPP48MMPjXBQDBqCwsL5Nji7G8WDIfgYwt8K+stJhhqCYeU4vwtDyCVHGE+GngnPz31YfaFQMXw/BYQTQVmCRmbMmNHguXgMj6X3xAjvjYXmU379iJ0mLFVgHbm8tJZzrFFBYAvZ4N+0ETPXrcX99zyKGy46Hx2a1yBSUwUzv2yY7Q/ZkqGCeG3SFzjlD6cgwxHDpElfIyfTi5/WFaHMH8C1V12Gtp06Iej0irfB17viX0jpFaqtwtLvJyEnWgZfZg5cHp8IkleEREpcKXkZmtApJTPbUiKiarwyl7jSYREgCk2yR9GQd8F1qY2R1vdAOIZ2iTD5uxMKMb2Khq7XgtfI/SgeFlxH46en0hg8huluT2xPCwrK9gQ95rkain+p/Hao53k4pKyPRCPiAYQRKl2PkrVLTFsGR7q2bdNCSnSfGQXLjmNhxvCy1yA324bDDz0Ac+fNhM9rl8/D0KK5F737d8HfrrgUeW3aIeRyoyrsR0zsIRwJizbZ8Z9/34mlS1aIUNngdrL9Iy4KrJZwuD/bOezylwbBPh2cMZ9TKMiKxNXGacwQU4WDbMlodwcmGtpWroHbk4WDcN2WhIMw7XSEg2xvtHQVDqWeeNhiVSZK17rVq7Bm0Q9w2vwoL6lGfn4rk6HZwBmNOKS64TN9ONhw6c7MQ68uHRAN+FEZkJIVfuS1aIqRhx+Mzt06wJHhRiAWlBoLp4EMwO6wY8P6YkSCLgT8NmRlNpVM75EM6TJ9OhjHlH9NYGX5zL4dIVY13OxIxkvec29MFEWJU0887LEIxrz6Dn6cNR/+io3w+Zwo2VSBnOx8OL0cSh+Ci6NhbS6EY044PTmIObORKcbfvVM3vDfxM6mqRNF90AHIa9lejDz+lsSciaNqxfg5FqW6KoSyslrU1kYQTMznwiDIDr6zlcLT7uCbHY6X4avcqGlcZZd4xCOTyrL9UHBUdBRl51BPPBbMXYz335uMqmrxHyLiCbg9WL6sEJkZmVKhqYXDFZEqRABeZxhZIiYRegiOCKpqq9G2oDUK2rTB8nKpD4tw+F2Z4jFIGiIy9rC41OKtxKIiQPAiU8Ro3sLFcPnE4/BKdUTSs9kjckUUEnYEk49ydXybQoPnCFoPPR2KSOJNC9mSGFhiYS2Kouw86omH0+1AsyZ5WLJiDRauLkbM4cPyNcVo07a9VGHEiMX4nZ4suD0+eLOzEcv0oUaqIjURP2oDlejYpQ3a9uwJOwN42DkhETuWVcPFuj69BluGeBVZmLtwOcqrg9goVaKqQEyqQRkiTu541/WofPJlmIZTikdUBMPjFeGRy7VF4m9ZyNaEw0ChSVnYrqIoyo7h+KeQ+GxmvbIjiG++/gZrCoswdPgBKN5Yji9nrkSm146ubZujtiKElSvXYN36EqwqKsFaWZYuXYGVy1Zh/YYStOvSHV36DTDtGg4RAWcsLJ4EbdYFf8yLn5avx+gXx+KDSVNN2wmjqbfOz0XLFgWmOhQU43ZmZEnVRqotUjVyOtzwh6Owi+fj8GbKFVOAKA6sCzXM5qLSsMDwrc+W5uHcFfCNBrunL1u2zPSVaOj83IfzlLKxd3dfX0NYvUi31FjLt0B8tcv8w2kcLThLG3vSNibyfL3MuVmbNGmSWBOfcHnWrFlmxrJ0Z0xTdg/1xMNlk0ydk42PPvsCFbV2VFdFsXwtX+Guw/xZM+Avr0VOng+9+g5C127s8NTFzNDevqA9uvUegI49+sHl9XBIDGIhxuqQUl6EJBjzYNIXs/Dvux5FYVE5SirFU6mtQY/2LeAMVuKHH2bD5syAOzsXjoxsyXDidbCKYnMiFBNPJJdtK+xdKtUeVmXEiWgsUzYkHlxnLYTTYe5O46QYsG8E5xJlRzEaBgWErzw57SC3Wx3DaEzsys6JlAk7inEfDnCz3qbQYPnZej1L+JnruZ/1NoTfeZ7Nn0mc5HSt/dmPg8MRuD+Ps7qsm8ZyOR/XM83k83A9jZ3jXdhvhPBa2FmN3fF5bEPnZy9b9p7lfVr3z+fCfdlt3+rhymvieXg+buPCdTxHY/em7HrEBDcn5Hdi4OD9sO/+I7Bw+TpMm79WdqrGeX8+EYMGD8Cggf3Rb1BvKWF8yHaJVxEqhtdWJT9uEGFbBGHJg8FoLWK2EHMcQsgQQ83Fd9N/wtPPjkUw5Ma+ww9GVWU18ppko8ZfiX32G4Sjjj7ctGf8MGsexo2fiHfGf4BZPy5CcVmNCI/DtL1EGKeDHb+SvI7UjLMtGWlPZDYaJDtUWaWsZawcQ0IDZcewxlixYoUxTHYJ5yz6NCwKEWGJz05eFIHx48ebQXfsr2PBcS48d0NwVnx2XKNQUUhozJMmTTI9UNkRjOtosOwmP2/evLqxNvQOOBs7z9dYD1MOyKPnwf14bY3Ba+U9sZMaz9UQnPWdsOs+753XyRnm6cGx45yyZ6gnHjZ7WKoPDhx37KHwOGqxQTJBmzwPPBUrcMx+3bF82WL4awMI1VTCFqlBWLwHtz2KcE21aegM26XEEk8jGo1n2JoaGyZ9MhvPvPgaAsEQ2rbJR/HahWjus6GZzwt/TQARuNHE58KgHm1w3MGDcc4fjsVpJ58oouPGs2PG4a2Jk8GoqDEpmYLhCMxk1+wLkljYF8T0B2FbRkr7xt5EqmjRWGhY7G1KUWms9ygNsE+fPmZAmlWlYalLmAa/E6bRv39/tEuag7dDhw51g/BSoWixW3rHjh1NCc4qBD0jruPEzDRSihy38/wUFUIvg9fN81K4GoLXQs+B3eC31IeE43C6d+9uzmfdUyrWeooZz8mqFKs8FMYlS5Y0KjrKrqWedUVj8kNINaFr5/YYMWIIMrxAz179UVvjx8aiVejeoz2+nPqV/KB0JzkShnE2wnIIO4xxdnz5sUM201bBiGGlFRvg9jlEYLzw2dzIldJ3hWTC3PyW8DVpCkd2SwQdmYiIUNkdVZJBqhCSaoxDBGnIsME47cwz0L5zTxG1bNjDLvhEIpwJY/klQdedpTRLTkK323K5aRBs62hs9ngaH42VpXnr1q1NWvzM45IFpyGPakulPtsxeB0WNOCVK1caY6R3QZGg4fLaeO1sz6AXw67zvA4a85bg9XHZEvROuA/T5/NoDJ7LGh1sVe1GjhyJ888/v64qp+xe6rV5BGv9iEZCcLrtGDxsCII1IXGpf8AhI/bBd199hG7dOsPnyURxSQWat2gpRm2THzYg3kgNvLlN4cltDafNI5kuaDyYnFyfZLhacbuXiJfhx+DBA1EipVXh+g3YZ//B4pIvg4eZRryY2mAU5QE7ikqCWFNYjB9nz8bCRQuw//DhIkA+uDwUJKkOiY1QtFKh8TS2JMPvnAx7d7Z58Jw0uC+++MKUlizRWTLTaNiISkNlCU9ovBx0RsPmyFhu49gWGjRH5vI7B7ixvYBtCiy9aVD8/awRtRas7lB8GvI+eCzTpWdDb4XPg9WYH3/80bTLtGnTxlwfr5dVBI5lycrKMmLCKgTbNyh4XEeR4bl4bVbVjNdvDdLjuVJhuwm9CI6p4bMoKCgwz4kCxSqade/cj1UmnovtI9yXIseqFMWz/R4YZqBInhbVrysazNiWjcVizOI92CKolh8xUmnH36++B4eN6ImM4DI0z3GhV/dh+P6HH8Ul7oj+/XqIp7AJ5ZsKkdehL7wFvUU8siRlKfFcIRGioOnbsWJdOe5/cDROO/1MMODxW6+NxfDhfbFkznwsnDYXRxy8PzKbZMOTlYsWrdqgRbMcNMu2ISvbhZCIS06b9igLBZGRmYGQCJxT0kwXZlDeW7J7vzvhI08WNJaqWyp1ifUzJR+Xmk46bGu6qeu29dzbst+23H9DbOs1KLuGep5HKMBBcUEpmcPIFEOlV+DIyMNnU6bi0JEHYPnc6ejdoyc6dO2KH+cuFHGgu5slKhSFMzsPnrzm4BiVSCwEm0PWcfpImwO+bCfate+I9m3boHf3Agzs3hEHDu4Bp78UQ/t2w8Z1RXBneaVUyUHzPDdaN3Ehz8u3CeJpOL1wZuaIe+pELMjWD2a07c9sFsxwu9vzSCY1w2+LAXCfdI7bGtuabrrn3pb9tjWtVNI9Ttk51LNADsWPycJu4aGqgFQPIjj8iGEIiDgsXlWF0tIAwpFacYOjOOJ3IzFnziIsnL9S6uB8beeJt3/YQvFu5nCIiLgRlWqM1+nDoB690Ua8Cyf86NipPYo3liIcqEZuRjWOObITjjqgJ1o382Duknl4fMybuG/02xj3yQ9YtbHCxBkhLme2lFTsoh7PPA0tiqLseuqLB9swZDU7adFe2YDqdlSjT99e+OLr2agO8I2HlP4OEQkRkVNOOhGbNpahvCyI2gCFhw2oIbB7RzwgB0eROuHkOBg7u6CLIBmBcuL7GT9g2g+zpVoiVRC3DR6p5rRt6cPRIlaXXXIOTjvtj6j1c7IFt6QnXkdIJES+u/iWRUVCUfYo9cWDHoNUVRh4J8oo6SIe4VAVBop4lJZUojrqRmHhRtgiIhCRIIL+Kow4cASmfvktikur4XBlmhgctG2+ULVLOk7xWhgUMOYMIuaOImx3iSgBHdo1x6xZszH+g+8Q8XREzJNvBsn5q8sQKCvED19OkiqMB+3bNENtTTXcLr61kYs0s8g1TqonkrooirLj1GswjdVWoybA8Shi7EFO0lRjDK641IEr/v5/2Kd/e3TODeD4ow6E2+1DLOZDbTCGZcvWodAfw5FnnA4nO4jF/OIhuEQ0OBBOPA5HEGERpqhNvIiYC75wFDOnvIk1P63FnLmFiLhy4fQ40ad/L9hdUWR6nehS0Bo5ORlw5/iQ2aoFAuKtBEMOeNlFfSuvCbfGnmww/aXDt0HsZ7GrhJjpM6yiCv3eTX3Pw8EYpM740HlbTDyQsBT0TrRo0gTN8zPgYOchM5G1mx06xIhrxI7jYxq+/vYHTPzwC1RWBuHirG7hICK2sIiGCJFkBFc4C66QpB8NIhqqhCMSRSvxLI45uA/OPeUQdOvRFktWLEOOZJwe3buhST67cIunwukexOMxouMU74FxTreQsbjNWpSdC9+M8JUxG5v56nRXLHzVa/WHUfZe6g+ME6EIs6oSDcgixh/hyFgp5SM2lG6qxoa1m9CmhQNtW7cS5WEDqQvri2owa3ERxn3+LabPXYK5s+aKmOSjfdu2cmwEMbsNbjF+RgajmDjsIfjLihEtq0SwphxuZwTN8rPRqXdH9OreQfSoAksXLsKs2T9h9fpKROxeFLRrL24SY4Owh6lTPlNERBzEcZLk+UnEQpyoui/ymR+TF7NPXFSCe/Btyy8Z9vuwAjTvSti5TeOj7t3UEw/2n4jFQnHxYKDiaLwTGAPxuO2ZmPzxFAwY1hXejDysLvLjrQ+/xNsTvsSCtZWoiHhQWRVGaWkVlixbIdUaL9oWtIHP7UDYH4TN6ULYFoVLvInajetQs6kYQakiebwueDwO+WtHlvxtnpdjOil17tZTqlARfPTpZ+g/cDC8mV4Rj5iIgF3+UQooCBQJIyNGINgY2yhmW3yHX6t47Oq+D+z4taWRsjsLihQ7iCl7L/WqLXZ7DA5XFE6HDQ6GPQ+LJxJ2wB+sRasO+Yi4I1i3CXjjgx9w1wvv4b25a7HSloPpy0UIkCslUi6q/cCSlZsw5o0JWLRoGWIiQo6MCELhMFyM5xGMIVi8UfYVN9juQszhNYPenCE5J1tg5PylVUViCKvQp5cPQwZ2EmHhvLYReJziwYiBREWAzORQ4mlQMKKSmdksGx/TwjEuiaUBkpp5frGw+sCxKKmMGTNms4Fwy5ctS3za/SxfvhyjRo1q8DqVXz71xAO2iIiGGDI7h1kNnhERj7AogieADj3a4oNPZ+L72StRWBpGTSQPNfAhaHfDnpFjpkZwOTPg8+aie5f28jci3kIIQQqILwPhoB/OIAfUBST9MEIRqRo5xCMRgQrVhkWs+JZHqibOgHgl5bDJeW2hCpSvXwWp3UiJFxUPhqIhC5VGvte5HRynb27JYao4nMYhvlEw74fjt2uqLubT7oX1eMaq4ChZK04Gu4YTayQsRYHbra7XhF3RrZG17KrNfeb8+CMmTJhguo5TDLl+yeLF2GeffUxXdcLRspx9jsexSzn3YVrWNnqahNvY3Xtn06lTJzOgzjqP8uuiAfGQxQQeZiAeLhzkxjYGZtBqDNmnj+zjMp2/bLJ4ZHGFpAqQ1wwREZCA7BdjX45gOU4+4RD07N5WPA+RIEeWeCSV4h0EMXP6D3DSkwhViSfCibJpzB45Ld+iiGhFOFOLD5FoPia+9zUKmrSAV9ILlGwwgiM7iTDIZcoSk2vl3C7xxcL6xr/mhbEIBpd4e8eeYvSzz4pIhs1YFs6fQt4bP96IAaeKJLw+igHHozz44INm22effmrEgyU4h/Bzn+ycHOPWc1wJv7N7d1Z2Nsa9+64RCcI2A48sbIRkGwWrHJx+kmk+/thjZh/C/a1BZ4qyrdQTD/brYgcumwgBAxK7XHyjEhAjFyGxO9GnRycMHtgLgUgYvowsZDrFeGsq4BMjdksm9rhDaJobwonHH4RWLfPFWKSKEXVJBgV8nnipOnvRegTEmMXZkGqKKIB4ITR20RjxKjiVpBuRUA4+njQNzZu1Q+d2HeCO1KC6eAWqSovgjEq9Xg5z2MTDoOOREAQaECe9jhsgO6TFDZGnsPbZ1W0CjUHDZXsNB5dx2HtMDJhEEn9p0IRVjmVLl5qBZ36p95uGQxEJDsdnSc5h8bx+zvKW36SJGWxHKA78bE9qyOTrTi7cl+0UbOisqqw0aTMMgBWpi20/gwYNMp8VZVupJx4xMUjEPEY82PHTIeLhcTvhdUkp58yCT4z75OMPRrfuBQjG/AhG/cj0eeEK1iIzVIKm9mJc/deTcPbpx0qVJUd0wSleingt4SBC1RXYuLEc4z6ZgZUbxI22+5CZkQ17KCjnC4jnEkZQ1KBahOblMe+hadPmGDyoN7xuRiQTjyNSgo2rliBUWSZVGBGFoOwoJbld0ufMcWxkczD8IdtrXA5EODrYGZ82kSU+hcMpxsW/uxsOf68R950ufPLMbHGhi6EwMTk1g/mwykJjZnUi9VqThY9BobcG79uCx/7uqKPw0EMPYVDStJUUrMZiiShKY9R/22L6lcvCLqA2v5TkjNMhQmLzyl+nlJDswwHk5Hkxb/EiEQ8H2rZojiEiJice1FOW7mieJV5GZp5kfDa2hhCO1Uh6EbAyEvLHMPXLaVhbWI1+fbsh2+OG2yVVCrcYt1SPqsX9+Hjy1+jarRMG9OkAR7QCLk9ErE+8DKcLHvEmKkoq4XZKSZrhMWIRi7E6wojrIhSSRoj9T8RQOPcLbY+djtgOQENkSU8j4sC4nN34toXnbCWewbtSraCgsapAgaBnMU2qMS1btTLeAIeusx2D0buG7bOPGW7OYzkMncdRhDhUnusoNPQi6FlYMUaZrhXch4TlO6NtsRrE/hNMn1WkU045pe6YTRs3mqHznNZya1Bo+Cx5/m2B18Oh9paXs63wuejblr2bej1MOYqWncKiUfECImWS+URAwi4ExehN1SJYjfKKYlSKFzFtzkq8+uZUdC/ojFHnnoJm7krkeQIoqaiCt1VXBMWQayO1sLli8NgyRAic8FeV4Pvps/HS2O+x/8C2OOukA2GPiifhiMHhzsILr4zDsP32RffubZAlouJh4yj1zOWRqoxDBCgo12dHZU0EmXlN0bxtO8ScXtRK9cjuzkSNP4CszGyT+Tj0PxCoNoZTW1tt2gAoJLzlKtnedg/1MGXVY+qUKTj3vPMSa3YPLBzuu/deEx8leVLr7YE9S/k80xlCvz0wQpkVF0TZO6nnebjYe1M8Br4WZYOCmL0sbqkGSB2GhY3NJSW8fIjYkOnNRF5ONubMnInps+cgJN5AeSCGJi0LkNW6GfwmcI9dDDgoxhuBPSj1/upiMW4pER1efP7VArQsaC1eRnuUlAbw9vjPsf+++6F7ZwYUCkvJKNUndw7CEZ84QuL58K2MGD/fBokPYwShUjKzyyvCxMjrIbZ4OLF6dRGys5tIqbxYSuwmpqMb2wRYarJ6Q7Xc3Z5HMiyFGZ5vd5esNPg+ffuaUIXpYokvvaBdCduItJPY3k198WALpJgm+1BEY3TxPeKF2ExkMY64tTvcpuHP7YzPWSu1DjHUTMxZshyzF68Qb2QBRhx6MDLyxDBEZEJBipF4ANVhqQXVQKREcnEIXbq0xeRvFmHpqk1o0boAkz6bjIEDhpl4qJz+obBwPZatWo8ly4pQuK4MK5etxfoNhSitqBTDh3gjLgREm0oqg/h62mx0697PjOp9+NFnMfqFsSIqITzy8ONo07IFWrduI5mdk3JL5o+FRPxESCSRPSUeNLw94ZJTPLa3+pAKRZive+l9bGvVZXuhQLGtprHYq8reQb1qi9vkBzbi8Q1AJP42QL6YneRvNBI1jZ8xM1l1RKow1eI1VGD5yjWm0a2T1Lf33WeIeAgMZxg2o3KDUpWoWVsBf02F+AtB1NSWo1u7Jli9wYbb7n8fMfEujhrZHL1a5SM3wyeGxQZbu9SX4zFC6CvwH42f56zijPlBoKZcPI+ADZO/m4HO3XqJSLTHy6+PR9GmCrRu0RK1ZZtw0vEjcc5Zf0B+U8mINqlCSYHJW6qSBHRgXHrwzRCrL9Yr4Z0JBY5tKhS5XSVOys6hwTYPwtXMJPybtIspFZhpIhQQDrUXT8Ru59wdLjjlR2efgrJSdkSKwi/VipBUXWolo0U3MRT/JixfswZFa9YhSwx58L4H4fX35mH2otX4x/Uno3NLH+ys6ojvQbEQhyexULRi5nWxxyGeUJhhAgIm2PK6Shve/HguvvphGSpDtYiKd1RTZUe2W6petRtx/jl/QLs2TTB0YA8UFDSVe+KcJA6UB2v2WJuHovwaqF9tSYgHVT91sRrJKCYcdWt5KAwPyLccdGm5T0y8A3oIsidssi7mtJtW/6qgH8vWlmHqN0uk2uBBYVk11laEsK64Qqo/NnRqkyvnCYnXwVG0AdhCfrhjYbjCITijfNUaNq+H2es0Kl7JtLkr8fwbn2L63J8gDgjC4lG4HOJOy5ldXh+qQkF8NeNrVNTWol37DmjatAk8LoekH0ZABGhPVVsU5ddAPfFwiEgQy9ugaPAz/1rfudADYTsCBYQLGzf53R/wixC45ZioERixUVnvg02qOzXhahGKMsyatwJri4qxcNVyFFbUoqQqiuKNNVhTuArVUp3gK2Gfxw0v21iCEcRCYXO8QdKtrgnizfe/wnPvfov1tRmojTlRUc1ZxTIQkHvI8ohH5BRPyJtjhKJw7Vos+2kJhg4ZgGZNs2RdCIFQVMVDUXaA+v08EiKRjCUYmy0Mdir/0dAZuyPe34LdquNzfVA82OjKMSbumBe5Uoe1u4LwZNrRulVL2G1hEZpS2TcCN6dq8NtQJZ/nLlyGFSvWYX3hJmRlN4E3Owch6phUV+wRh1RFovhpbS3GTp6HkmgT1EQZFtGJnPz2CARtKNu0EjF/GTI58lO8nabOKI4cPlREqAynnXI03PJdJMnMf6vioSjpU6/Nw8tqRmJV8l9LNCziAvGzd8I2j5+3R+vaS6TmAnvMHhclZwBVgRpUlodQvqEU69evxKIlS7B0yWqUFJWjVryU4vJqBMTJ4BudpjmZ6N+9PYYP7IkeHVrDJl7NquUr8MDYr7EykMf6EkLVVfCKx2H3ZcMmwlVZsg7BTWvRvlVTDO3VAb/r3w5t2+Yj7AghIlWj1p26I7+gM0o5e522eShK2jQoHsRazb9cUsWDr3FlA/8zMNq6mQZSdmEjJ6EA0D2x21xS26C3IgYs/7jaX1WLUEiWsKwLhhGqCWHDplLMXbAI8xctxsrVRdhUzFnRXCIOTgzo0RGnHncwClfNxasTZ2Pumgg8vhw51o1wTI63x8wE201cdgxo5cBBA9qhX6c8NPHUwOnJQtSVC0duC0QzstGqcxdsrK5EQbu28QtVFGW7aVQ8iCUcydQJiPwx2xKbHVyRgDE2zF+zMSaeB/uLiEcj+0TEC2FPDh4b4huTSEjWxsdfREIRREVIGEO1qGgj5s1nNLF5WLLkJ9RW1yDT50b7ggJsKotg9Qa/nDQPlUHxcuRY1qKa5XixX98C/PW0w4GyIrRqloGS2hK4vS1F0JrihdfGoyoSwKhr/wa7N4p2Kh6Kkjb1xMMnpby1KvUvscTD+mtt4/B4ruE3eh7czv6plAoXP9nZN8QjO3jlswehaFAO4lsVRiuLv/Z1igqwU1lI/vJdvyPGWCAiJOvX4+13J2LSp9+jpCyKrKxsSdmJ6toY/HIGhzsHDvFgmrqDOPTAnjj5hGPwzeQp8GVmYm1ZCVYsL4bfb8OqVevQvFUuHnz0P3C4/CoeirIDNCgeJFk4knYxGOGQKoqRCtnG7xQPYvav8zz4nW0hUm2xV4mZ84TyneriDItwhM3UDLLRvGZl6EO+TbGGp5v4ACI9fGPDoeZlpSVYumwplq9klaYcP86eg+XrquGPOZGd5UKWizP8i0A5PMjOdJvesi5vFnKyvGZ7u4IW5o1Lt+5dUVlTuVeIxzfffIP99tuvToz3BPzNnnziCVx08cV1r+MVZWtst+dBtiejx6srbAth9YTHJUSHi022mAYSeilSpWGkdtPQyn4i3MxqDveNZ2iuF0UxA+OcLo8Zsl5YVIL3J07En047DT4fR6tKpcjuEM+FI1DZJV0qVHIehyTBEIvsrcp1lbW1u73BlM+RPTP5l93T6V099thjOOuss8w1sVclt9XKfXEMD8d2cOQrx+SYjnmyjsF/aOAc+Mf1hF3FeTzflvF4ptOYCHDMiBnjI9utruq8JqbHkbuEoQ14PistdqfncWa8iccDt3YbV4QGO4mlikPy9+0TDu5Lg6UnsXmDK79z4ZQMohHxr/xj9onvy2A+drNwvQiN+SzVFE5MJem6XA40ycvEAcOHSaa2m0mhMkRAMjNcZpg/R+o6HexvwmNFPJgmzydGsScGxk2cMAHTZ8xAJMx5gDPN8t5775lh8h988AGGDRtmrm3O3LlYu2YNxr7xhpkVf/z48Vi9ejXmyfqAGD6N/F+33y7PwYlnnnkGw4cPR1lZGT6UNDjuhCEFOfAuFb4he2XMGPMMGVukeYsWZj3DFF5/3XU49dRTzXfGHuXI3xdfeMGEBaCIjR492hw/bfp0EzqgMXFSfjtsMQdsbuzbx9aOTd1OozGCIQsz5tYWt1sEQhaPxyUlaUBKX5bSLlNKcrtTBCY+GC6+cJ2V/p6Ahjf1yy+NlzFcBKF58+ZmPWNzUDSyxaMgfA70JCorK1FUWGi8AHoorNoMGToUc0VACEMSZoj3MnTIEBMJjIGOGd9jgQjBF5Mnm31S4TNg+t99913iTVicgQMHmuuz6N69u3lmxx1/vEmbwjT5888xe9YsLF60yHglitKoeKQa2a4wPCs9ZmgL6zyWSFiLJQJcKAqMN0JvhN3gs7IyJPOHZJvNiIaJJCb1FCbfUHq7ejh5Q/C6c7KzTSnfILxYgYGAGDCoV+/edcPfk+G90Hhp1By0OPLQQ816hirkUPvLRo3CP352JjeD984YIqeffjqef+65RkWAIsHrYLhEwqpTq1atcN755+PGm27aIyOClb2PetUWt2TyZJhZt5fGjtnS+u1ZaFAsjfmXRmn95TYaSPLfxha/GA4H8e0ueM6+/frh5ZdewvdS8mdIlYUGySjqLOkZzYtVjWwRGAYKoifRu08fs41tEi1btjT3ybYJRheb9NFHpu1iyhdfmNn6OM/Nl+LZTBavg79jt27dEmf+GYrR2Ndfx/Rp04wX06NHj8QWYNHChTjkkEPMOSZOnIj1RUWmMZfXyHMzuPLrcuzKFStMRHQ+b+W3zVbftpDkz1uCBtIQja232Nr2+sj1iNdhfWR7CS+xLpnEOv5PZIQf6lEqBsnwfbuL6dOn47777jMXykbh5EDF9ZB9zC008lxCIhrl5eVoJlUfVmsYTJliRCgQZtBiY89U0qbHko7xJ6f96quvJtYqv1V2mnhsSQB2jXgkPjZCXZqmNbY+u1s8djb0Ljj3CiOq08tSlN3NNrd5bIkdEY70kDQpCikLvQxrqVv/K4Vvarp06aLCoewxtinnpSsAu0Y4tsA2eEjk1yspirL7qCceyQbf2Odktnf9roTSwSpWapUrdUl+TakoSno06HlszfBpgGRL+1n77CjJ6VjGn/w5dbFI/a4oys6lnniwVOZCwzN/ZZ35HGW38Z8N0lq/pcVKa0vL1vYz2+Xcm61P/Z7GIgmb+1AUJT02e9vCPgR8HfdbwRrboSjK9rOZeCiKomwr+p5PUZS0UPFQFCUtVDwURUkLFY/dBIe1M17GnDlzzPenn34at956q/msKL9EVDx2ExzByyHuxx9/PC6//HLccccdOPvssxNbFeWXh75t2c0cc8wxJmrYww8/jFGjRiXWKsovD/U8diOPPPIIZsyYgXPOOQf33nuvGcWsKL9UVDx2E6Wlpfj4448xbtw4PP/886bqcv/99ye2KsovD622KIqSFup5KIqSFioeiqKkhYqHoihpoeKhKEpaqHgoipIWKh6KoqSFioeiKGmh4qEoSlqoeCiKkha20tJS7WGqKMp2o93TFUVJC622KIqSFioeiqKkhYqHoihpoeKhKEpaqHgoipIWKh6KoqSFioeiKGmh4qEoSlqoeCiKkhYqHoqipIWKh6IoaaHioShKWqh4KIqSFioeiqKkhYqHoihpoeKhKEpaqHgoipIWKh6KoqSFioeiKGmh4qEoSlqoeCiKkhYqHoqipIWKh6IoaaHioShKWqh4KIqSFioeiqKkhYqHoihpoeKhKEpaqHgoipIWKh6KoqSFioeiKGmh4qEoSlqoeCiKkhYqHoqipIWKh6IoaaHioShKWqh4KIqSFioeiqKkhYqHoihpoeKhKEpaqHgoipIWKh6KoqSFioeiKGmh4qEoSlqoeCiKkhYqHoqipIWKh6IoaaHioShKWqh4KIqSFioeiqKkhYqHoihpoeKhKEpaqHgoipIW2ywe69atw8aNGxPfGmbJkiXm77Rp0zBr1izzeW+itrYWP/30k/m8bOlSTJ06FbFYzHxXFGX72GbxePihh/DqK68kvjXMhX/5C6LRKD755BN88cUXibV7D4sWLcLf/vpX83n2jz9i3Lhx5noVRdl+HP8UEp83gyXypyICL7zwAubMmYPVq1ejefPm2He//VBaWmrWfykld1Z2Nlq0aGGOef7553HOueeiqqoK7dq2xQbxVD7//HP06NEDtTU1eO211+D1etGsWTMjLi+//DKKCgvRo2dP2O124wnMmjkT06dPN17MypUr0bVrV+P1vDJmDFq3aYOcnBxzLhKJRPDuu+9inCxV1dXo2LGjSeepJ59EiVzj+++9h+niBbVr3x7Zcp0vyPXNmzcPBXJtbSStrMxM9O7TB36/H2+99RY+mDgRlZWVaC/7M+033ngDK1aswNtvv43169ejp1wnmTx5Mj784APk5eaiadOmZl26zJVn2yQ/Hw6HI7FmyyxcuNBcY5MmTcz3UCiE7777Du3atTPfU+Gz5L3uTvjs3nnnHfTu3TuxpmGmff+9ue+srKzEmm2D6bMg69+/f2LNtvO9PCv+/sqO06jn8b38sLfffjuKS0qMAVrVEGbcUZddhi/EgGhYl116qcmgyXz91VeYMWOGyRijn33WCM/SZcvw3OjRyMvLw4cffojbb7sNFRUVGDt2LK684goEAgF88/XXuOuuu4xoVIsYUKBqRHSmiNC8+uqryBVjtWAGevCBB/D4Y49hzZo1eOD++/GkiAY9CYrYv+TaKRSfy3Wef/752LBhA1atWoVwOIyVct00ws8++8zs//jjj5trWyJVmvvvuw8vvfgigsGgEZSHxOOicNDzouBR1K6/7jp8++23uF/OSePdEryPtWvXmvOSDZIWr4MCTNaJePJeuJ3Pidt4DLHWUTz5fLgsXLCgrnpIeCx/B8JnxWfH51FeXm6OnyMeFo/nZ2630uNxFE1WRSvld0hm06ZN5jqK5a/1nc+P6bLqlwwLGabH8xYXF5s0y8rK8O0336BE8k4yvCbux2fA41bKOXgepst8RXhdqc+BvxHPwefIgonHWnmuMPH8+DvwOC787biO57PgZz5zepxbq34r20aj4vHpp5/ikEMOMcYz+rnn6lSepS4zQP8BA9C5SxfkS6k59vXXzY+VysCBA02J+KP8YDxu5MiRRgAefeQRs54lfN++fY3QLBCjIAcffDBuvPFGnHLKKSiTH5uGy2MvGzVqsxKKGZRezS233opHHn0UN950k/FOmHnIySefjCefegpPPPGEMQ6mf+FFFxkP5KKLL4bNZjP7kY9EzB4VEeK+//73v/HSSy/VGckf//AHIxKHH3GE8YwIj23VqhUuueSSrXoMfH409mUinvQQPv74Y5ORJ0yYYO7BYtKkSXUG+JjcDw2H1arFixcbw6Wg0UBqxThTDZjQs6NQ05h4rrvuvNOIDY2Zhsn0KIwUgrlz55proYDyt/PLfhbc/p54bLy2V8VTZFrPSrr0Mml8r8u65N+a+YSiT6Hg+WeK58jz8lp5bgsKwJviyTHdH2SfL7/80qz/Wo7l85goXh8Fjt6u9Rwo2BQLXivb0Xj+F6VAsUSF7Vdvi8AzbRYkPI5tWW+++aa55/Hjx5v9CL1KXk9AFoqosuM0Kh788WkkXGggTpfLrOcPzR95DUsH+bFYBWF1oiF43DnnnIOJYiifSSb746mn1mUsZiKWmMwQffv1gyuRfksxSlY9MqVKccSRR+JJMWgaxEknnWS2W/AaWMKw6sFr5P6ExxJfRoZZ7/P54PF48LNUbA4NgdfE43ksq2FWGoTVA6aTK9UlGi2rAA8//LA55pprrtmsFJs/f77x2JIz5+BBg0wpSpFlW1CGnGf58uUmE1slO1kiIkEDpPjRO6Ng0Cgp4BThv1x4oRFPnr+goCBx1M/Q6Lt264b9pFp50EEHoYNU4ZxOJ1q1bm2qjTQqPi+mT8OiVxYTozvm2GNNddSC3tiwYcNMYXGECOZHH32EsPxevzvqKPST34nPlc+e0AOguJwiAjtI7pNpReV5shqbI4VEcnVphdxzhw4dMEAKnaMkrQMPPNCs5/31kapjvjxnPpOFixbVPQdWCYuKiozHx4KHBc0l4unyt+K9THj/fVwqXjA9WD6vESNGYISky3sj3MciIJ9by7No2bKluQ5lx2lUPA6WDMiMdMP115sSduYPP5j1Rxx+uDEouwgDPQe2LRxwwAGNlsADJOMzY/MH5/70PP7wxz8a42MbhTFwrxfdJOOnMlIy1ldSBdp///3rpc9rYIZlk83dd99tqimHHnoo2ibqs69JNec2qRpdfvnlxohoWA3BdHn9F4tXwjSuFUE4VoyAomOQ60uGAsHqnFsEKSLGZxkS4bnZRkOxslgvmXrfffc1JWQH3r+IEK+T7TB5iXYLQlGh4XMbMz0Nh/dIceWzYonPErYxaNSsolCYWTIvFiNMhgJP0eDvSjGioBC3223+WvTq1cuIOoVhnngoveU7yZD0CdusZKP5zN+On603WGzDaMgDJc1FUNZItYPQQ5g6ZYr5nJlI1yG/UVTSome4nzwvPgeKNYWtQK6dIsL7f0u8CnojzFMdO3UyHhyPYWFkeVgUal4nfyses0g8rPIkL0/ZOTTaYNpe1Lmp/Aj8wVuJWlP5O8mPRTEYKT/sailNKRwnHH+8KT0I66UHSuYslZKDpSMFgT8iM/TQoUNNacYMN2TIEGNEzJw8z6UiTmwILROvpqVkMhogoeG8L6ULBYAlaDI0epY0QUmbXhAN9O8JoaCbzdKXht1ESvGrRRA6d+6MoBghvQIexwzoFYFgSThsn31MybRRDJ0GfN7555t06DqzVOS90OOiMfNeWbrSBWZbCrdbUDQoOsmeS5VkaLYX/f6447CfiOAMEeEfZ882JSAN2E8DkXvuLs+KVYilYogUs7ZSrWPabHhkO8cBcs08P89LY+FnQiPnPTEtPkMa1w9SDeQ98veyvCV6LRRrVtFoaCz5eSzTqhNKgV7DfCm5WUWj4B919NGm+mg1FteIcfK3sMScDc6s5rD6kS+CR/HJlWfOcyQ3mPLZVMsz5/mLpCpK74NVLd47r43XSS+2R/fueM16DnIPLHCYj+gB8bl1k+30HJinWAixPY55iM+MbVS891PFw2UjNO+b+YdeCa+L+/EatMF052CTDLTFjg5U7mRjSIaHmtInTbaUNmFDJt++sO1iS+dJTWe4GOmVV15pMhfZ1mvc2vUksyP3vr3H7uhzTmZb09qeZ0G2Nd0d2W9rx3I7Sd5nW8+nbD9bFY89CUuRFlJCW1WRbYUNrCytGmobUBRl57BXi4eiKHsv2+6XKoqiJKHioShKWqh4KIqSFioeiqKkhYqHoihpoeKhKEpaqHgoipIWKh6KoqSFioeiKGmh4qH8auHgOQ7kS6axUb+E+yd3uOb4Hq5TGma7xIPBXhibYmswxsXNN9+c+JY+d/z3v4lP2w4D7zCSmPLbZunSpbjm6qtNcCeO+CXMFxecf74JK5kMBYWBkk794x9x8cUXmxHXHNp/wQUX4MwzzjCBmpT6NCoejNFgBVNh8Jr1RUXmM+HwdAYTTmbG9OlmODiVm9GgeAwjiPGHYVyQ5557zkQMY1wQKjp/0DEvv2zimlqRsUyAlwkTTNSs5HgUzAijR4/Ge+PHmyhYHO49e9YsjB83zsR1YOnAoeuMMsXIW4rCMJG33X47bv/Xv4wQMI8wRgqj4jHmbXKgIOYZhhx4R9Zfd911JuIZ47r8R4SH0dQYxSw5bosSp1HxYDQmBqEhNGQrkAvF4Hn5ATKSYkAwngRD9zEsIUXlsMMPN7EkGL+DosJIT3/6058wZcoUvPLqq0Y8uD/36yrH3HnnnSYdhqJjTIrTZF/ux/NzYWAfRiRjhC3GD2WcDYYgZPg8Bn65+667zMjbs84+2wS43ZJrqvz6YeG2YP58Ezvkk48/NqEtGanuuOOOw23//CcGDx5cF7mOUFgY24UFnxUzhXmMAZ84nJ/xW7YnPMFvhUafSHIEBBo74cOlp8AAMAxWY8FoVAz8whB8DLqTzOQvvsDw4cNNwBlGJLMCzzCkHQPiDB02zITI4zkmffSRCYHH9C699FLY5AdjrMvBQ4aY4DMMNDRIfnjCIDZMl14IA83wOP7QzCD6Q/+2YX5gAcTwhQzHmByF7vIrroBL8hfDJ1p0kQKMAZBYiDEYNws1eiwMqH3HHXeYgEWap+rT6BNhsxGrExQMigJhSU8XkAF6khuSuA8D79DTYNUlGSo8I4sRqnmFlArEhLNLwKhd9Ba4L8WA0Juh4jP8HUPQ8Rz0QhgLk/DH5HHMGIxMZQXbZYBg5bcN8xYLJ4YpZDQ0xo5lDF1OIUJPtY8UdIxSxzzH6gv3YYDtI488Escff7yJBcPIbNdeey1ckseOOeaYRMpKMo2KB4PNcjoCNlpaQuEVRWcjEkP8sV3DgvXBRx991ETSpieRzGmnnWbmP2H9kVWVxoIlE/6AVPv77r3XuJv0QPbZZx/jBdHdZCnAqlEyrOacLqXMnbLtnrvv3isnm1J2P6xac04cztXDmKwDBw0ykeuZT+jNso2DkfnZLkcoJIyXy3CRFmyrGzJ0qAmFqNRnq8GAWNonB/TdEhSZ5LpkMvQkWGXZlpBw9G5YGiTDEsLyNhqC1R5ea3I8TkVJZXvys7JlNJKYoihpoa1AiqKkhYqHoihpoeKhKEpaqHgoipIWtmAwqA2mirKD8E1gcme03wL6tkVRlLTQaouiKGmh4qEoSlqoeCiKkhYqHoqipIWKx17GhvXrE58axxpBrGwZjgrnSO5txRpFbsEBnxyTpTTMdr1tYRjCw484YqePMmT4t7FvvJH4Vh9GemLksXPPPTexZtvhaMnx48djwIABaN68Od58800M6N/fxAjZm2Amve+++9CzRw+T4Y/9/e/Rrl07TJ8+3QRYOuOMM0zmfvzxx83gQw7uGjFihAlXwAhZgwYNSqSkkJkzZ5pAVFlZWSa8xOmnn44FCxbgoYcewhNPPBHfKQGDVTFvc9BmRWWlGQleJX8//uQTM5Kc+eaMM89M7K1YOP4pJD5vBoctN2vWzGRURueqqq7G6lWrzJB4BpVlSMGOHTsm9oaJFcn9HnnkERNcpXXr1mYE479uvx3PPvOMSad79+748MMP0aZNGxPnlIb85dSpJmQcjXxIkkGzdL311lvxyiuvmBGzfI8+cOBALFy4EDfecIOJSrZ2zRoTu4HHM/4Cef/999G1a9e60bsfffQRPG63EYubbrwR06dNM9vfeust/Dh7tokqtXr1alx91VWYOGGCGapNY+T5H7j/fvxPjDUq+spgR8kw/CHTe/31183+HTp0wAcffGAimvFemVHXSLrMeDfddJMJudhGnkmBbP9Kni1DKnIUsiXEDHXXXsTimGOPxQC5T44OrpQMPGbMGJxwwgkmihrvnZn5z2edZUImTP78c7P/G2PHopdcX3KMlN86fL6ni+AyeBTzIp8nfwvmu1ShXSTPtaCgACefcooJKvXO22+b8BH/+e9/ceCBB5oId1zf2Iju3yqNVltY+tGgCQOnMCgsKS8rw/MvvGAC/yRDz+B3v/sdnhahYPAgGjxjKjCi0zOi6jVSajI4MY3zZflhGKDl1FNPxai//92IyYUXXZRIKT78nmJ0kax7RtKjCDG9lStXGiF66OGHMWrUKBM/hCXwdyIeNLQ1Iia8PivqE49hABh6S1x30cUX40YxZJbqvMaDDj7YZAhmjjvvusssY0UMGOeBQW8ZuezZ0aPNc2CUMwt+p1Ez/shTTz9tRIiBoXNzclC4bp3Z/tRTT6FT585GOM477zw8/r//mVgjvMaSkhIjHPvuu28ixXjpN27cOBN/grFSKAS8BgoTY5swM/M5NBMDILxup4gUhWro0KGYIKKpxOHzLRSP7Al55iwkssX72FIoCI8868WSN/mbzJ8/30SpYyGwbu1a88xDkh8ZW0bZnEbFI/lRR8QICY3x0cceMy4gIzIlw+/9RFDoJtKg+UPMEqP6v5tvxhmy/6viQTAWKmObMtOzNx73bQiKFUtyejb80Q8dOdIY/7y5c437zuhi3M5ShUZ01NFHG4OjO8oQcha8XmYES0ySYaxKRpsiDKR8sQgVI2vzmlk6fSCCctedd5pAQ6+/9pop9S1YF27ZooXxYGi8Iw891Hgi3cX7oefDgM0s3bjft998YzwlRuGmN8fAzWT/4cM3K8mOOuooI2y8Lt4PoShSQM+T66J4UVQbqmW2E++F1RclDvMio/dTqBmWkuKwJegR+6VwO172vVwKs+OOPx73idd5zz334KQTTzSFwLbEofmt0ah42MW4Le+D7jyhMRwkbhxLZytcoIU9+eFKBqdhsCrBEvftd97BLbfcYgyGVQSGIgxItYCq3hA0eLr9hYWF5juDMdNoGI+S1QT+0CypWeKT/fffH99JlSlfDK9Vq1ZmHaFAsdSgV7Il6IkwSvYbUo1ifZdxWOmu/veOO8y1X33NNaZ6YMF010qpZIWyY0R4Gj2reSF5RhSyEyXT5ebmmnivfAZvSgl48V//aoSmMXjfFAjG12SUeB7PYL68V0ZM471RUCiKfP4MkUdYt2dVR/kZ5j/+Jhs2bMBDDz5o8m4qbEOil0JhOP+CC3DtddfhfhENPncWOPc/8ICpSh+b9NsrP9OoeOy/3354WlzvSy+5xBgAfwxm4EPEC2DjEWNCJsMHbsFI1DQwhixkZPO/i5rTLeSPSSO/4C9/wSGHHIJnxOUnyccSehb/+Mc/TMi4UZddZsLIsc7aR66DYeIuv/xyU0Iw1iR/ZJ6rZ69epoqUDDMFY6uy3YVtGLwHegqEVQyLQ8Wg6XnccP31xtvh+U8Q439FqiZXyLkWipDRy7BgOtzOazv7rLN4orr2n/PFS2CGpVfFczEz8hkwbUacZ9r0zKzrsGB7Ec/FUHms7rUQz4bR4G8Qr4UL75milifP8MILLzTzjBwwYoTJ/GxQPuywwxIpKYThM+l58Nl3E8+CvxnxJXkhfHY/Sb4kFBcGQU4Oo8lqI/Mq861Sn62+bWHJSuNMFybPkjKdNHgsf9RUQ+M6ikZydeThhx82E/Y0FGKObysofGw42xK8ztQqDs9lZbxUGru+VLgfn2Nj6WwJHsfjk49NviY2XLOxL9njUpTdwa9iYBzbV1jn56tNRVF2DzqqVlGUtGi0zUNRFGVLqHgoipIWtlAopNUWRdlBUhvwfwvYotGoioei7AR+ax3JtMFUUZS00DYPRVHSAPh/WdNEk/FYXMoAAAAASUVORK5CYII=;" vertex="1" parent="ZejM4U1-Lfs7wTc2lEzZ-43">
          <mxGeometry x="277.86" y="160" width="184.28" height="170" as="geometry" />
        </mxCell>
        <mxCell id="ZejM4U1-Lfs7wTc2lEzZ-78" value="Packs Available" style="text;html=1;strokeColor=none;fillColor=none;align=center;verticalAlign=middle;whiteSpace=wrap;rounded=0;fontStyle=1;fontSize=13;" vertex="1" parent="ZejM4U1-Lfs7wTc2lEzZ-43">
          <mxGeometry x="500" y="130" width="100" height="30" as="geometry" />
        </mxCell>
        <mxCell id="ZejM4U1-Lfs7wTc2lEzZ-79" value="" style="shape=image;verticalLabelPosition=bottom;labelBackgroundColor=default;verticalAlign=top;aspect=fixed;imageAspect=0;image=data:image/jpeg,/9j/4AAQSkZJRgABAQAAAQABAAD/2wCEAAkGBxITEhUSEBIVFRUXGBgVGRgVFhoXFxoYGBYXFxgXGBcZHiggGxolHRUVITEhJSkrLi8uFx8zODMvNygtLisBCgoKDg0OGxAQGy0lICUtLy0vLTAtLS8tLS0tLS0rLS8tLS0tLS0tLSsrLS0tLS0uMS0tLS0tLS0tLS8tLS0wLf/AABEIAOEA4QMBIgACEQEDEQH/xAAbAAEAAgMBAQAAAAAAAAAAAAAABAYDBQcCAf/EAEQQAAIBAgMEBwUHAgMGBwAAAAECAwARBBIhBTFBUQYTImFxgZEUMlOSsSNCUnKhwdFiggfC8BUWk7LS8TNUc6LD4eL/xAAbAQEAAgMBAQAAAAAAAAAAAAAAAgMBBAUGB//EADcRAAEDAgQDBgQEBgMAAAAAAAEAAhEDIQQSMUFRYXEFE4GRofAiscHRFDJCUgYjU4LC8ZLS4f/aAAwDAQACEQMRAD8A7jSlKIlKUoiUpSiJSlKIlKUoiUpSiJSlKIlKUoiUpSiJSlKIlKUoiUpSiJSlKIlKUoiUpSiJSlKIlKUoiUpSiJSlKIlKUoiUpSiJSlKIlKUoiUpSiJSlKIlKUoiUpSiJSlKIlKUoiUpSiJSvJNtTWH2yP4ifMKLIBOikUqOcZHxkT5h/NfRio/xr8wokHgs9Kxden4l9RXn2lL2zrflmFFiCs9Kj+1R/jT5hXpsQg3uo8xRZgrNSo/tcdr9YlueYV9fEoN7qL7rkUSCs9Kj+2R/ET5h/NPbI/iJ8womV3BSKVH9sj+InzCntkfxE+YUTK7gpFKj+2R/ET5hT2yP4ifMKJlPBSKVG9tj+Inzj+ae2RfET5h/NEyngVJpUb2yP4ifOP5p7ZH8RPnH80kLOR3AqTSo3t0XxU+cfzT22P4ifOP5pITI7gfJSaVG9ui+Knzj+ae2x/FT5hSVjKeCk0qN7bF8VPmFPbY/ip8womU8FJpUb22L4ifOP5rLFIGF1IIPEG49aIQRqslKUosKt9M9oiOHqwQDJv/IPe13C+g14X5VRiLgle13L2iTvsAt71O23tDrpnc7r2UclG7+fE1Chw6yOEMjIWvbUkNxy66A6E+VTuAvTYakcPRA8Tr9OC9HEpG6+8p0JZ1IQC+qlUV3va+9QO8VsV2lBMRFh5PtWOigMraas1+wpsAxsWF7UXZmnbcsAL3a7NYC5921+POo86QKhZo5AgF2ZhlW3PtMCR4d1VEO4qpxa+5JniIjlaAT7uFHxUNiyHaNnD5VUtCv5iwMmZLWYC7WJAsdawSYKEkBNoF2zhR9pHcKPeYgvddxA3g9nWxryek2z1AVdQBbRG+rAH1NYJ+l0BsI2ZB4EcOYNVHL+71P3Um08TaJH9v2bPhK3OzthJ1vaeYx2Zi7LkJ4KAzRgEk66E6DfXjEbeTDFVWN3Nrm5UEd11JVrX/1atNL0mgNhGzBiMpLk2N/7RYefnUiGdLi7MPBz9SCalqPhd9fqpig+ZqkkcNPl9lNk2/A+oDxsfvM0jAelz6A1Hj2vGc2cOx4OTu15HVgeW+thJhoJACxC8ssYZju1JPH+fKs8+Fhw0mguDey5AE7Jym2pJ1B1JHcLG9SHebEeR+6m19JsNa107CTtwPsclpI9rxpJoGZedh/yuDpW4/2pgiAzkliNeyfLRLAeFvOsWInhlGWRCFvfLGEW3H3spb1Na3EbPjZrQqwHJnLHx0QWH+r0PfTaPl9Vbka+5zNPIj5wD4ARwUyXHYZjliLKbGxfRCeC6nS+upIGm/WoxLWDNnUXsSFQ8d6kvZxa+o3d9R3jWIWkWPtaAsHLeKgb/Q1l2fg4B2/aISeCukha/MhQLeJqh4xBNngeErMtYLOcesOJ+vzRcOzPlMjhSLq6lSp7msoKHxH814WKIW61JW4HNMqkHnYLYr/dfu4Vu5OknV6t1S20BXNH5gXNzUXF9NFYAZ1JF9e2Trz3em6pHC1Xfrd78f8AxRa7FHRhPR32HvZQAYdCseHDBtczYh1ZdNzA6HfvXiPCph2hDqqjBKODNA7MN3ZKlSD+YEeFaebakDm80sj92UADwBHKvsWPwe5Y5GPcwH6BapPZrybvd6fUK7unm7g6es+pH0W4k2lGWzK+EUEWKrh81j+JWOHvy0IPnvr7FiogjJJKjEm6umFyMO4/Z5SvhY99QVnjI0wzn87n6ECvazKN2Fj82/8Ausjs4/1HeTf+qr7oaX82/wC/OecrM08Bsud2B0ypGFOY8Vu4sb8CCK9z4CJgmaZIyAA1ygduRMaHIp7wdeOtRziW4QRjwb/X+hUuLHneY41sRoFBFgAL79d3unQnxNWM7PY12YucepEegH25aLGVzLtn36ehWAYLCgdqV2NuABGawNrrc2BuL91xfdX0rhxlyqzbs2brhx1ykDXTdcVIGO04cvcXhuN7346+HGsMmNbLuFxawAUE87tbW3fWwKDB+kLIdUOrneZH+P8ApZ4/ZdbQyEX5SE2zceydct/OpSYKFhcYScjmEk/Fzy8tPGtNDj5EJOQkcswP0qRJ0wdTeRFB3XZGBtu7r+dZ7lv7VU5mIJ+GT/efuvm0sIgU5IpUa+uYOF38QQx3eFWH/D7aRAbDOebpo39y6gdzebcqrT9MgRlOW3IKT9WrHhek0SOsisQVNxpp4b9x3edYFAB2YC6zVoV61F1N7TyuTfb7dCuw0qqf7/4H8b/Kf5pUsp4Lz34LE/03eRVLmFmbuJ+tYZydLGzXBB5EEEHyqTj0c4gpHYMzyAE7gQTr5KGI7wKybR2ZHDAzXObsqXO8KzqrOo3AhSxB399Zc+Aei9I6sGkN3MetvL3C2g2zAGNmJyntFEZlU7yGZFKqRxBOlc96V9ImxTZVusQPZXiT+Nu/kOHjXWek2OmwcEZwEKNGlgQLkLHbeoXfw11te9jrajTdHDtRpcZherhQuqlGuGLhVLOwVSFvmB0ve19CTWrWzn4d+Huy0Oz61EHvnthugcSDB5gCQTsbixInVc/yV9y10PbHQKAYQz4Scylb3PZyPlbKwXKLggg8Tut31PwX+HeERoosTO7TOGbKlghyC7AHKWAFx2iRflrVHcv4eq6R7VwuXNJ3EQZsJ04RuuW2q09D8DPimaKMIcgDEyMVAW9gNASas+zOjuBw8eKxk8TPHFNLFGl79mOTq9xIuzOLdrQad5rY9BMdhZsTKcFD1S9SuZSAO31jZtAStgMmo337qnTYWuEmJWviO0g+k80WEwPzQIBMWN+B53Uro9suN42Mq9vO6EKx7BicxnIwtftKTm8NN9bIQOVK4hUfW4K2APeVYGx8BVb6VJh8DlMayCeSVpBOb5VzSF2UtuKdph1XG9zb3qmYPpBiDoYC5O4my+iga+tbLTsVyy2rVHejQne2muW+g02kjTjruknUI+WJiSN4CqoB5XVQTXvASEwSmMWkUA3tchPvsL72A9ASeFNvxKhDzEGSQlhFGoJHPtMbAcyeO65rHsXbfU5vsGBIt76MvmcoI9DUrreAc6iMozRGuhve8CeCreI21EpJW7sd55nvdtT+ta3EbZlbRbL3Lv8AU/tatrHsWIdpgW8TYegtWcSwRbig/La/6a1tgtGgXZBpizWk+/eyr8ezpn7RB8WNvrrV72Fs1Y0RRGpkIFzlBYsdSAd++/kK0+z8aksgRAx4k2sLDU79ddBu41ecRhmhiRluGbV2G9RYWW43DXU8SKhUcTYrn9pYh0tpOtO3vx+Sx4zobh3UySRoHALHKLagX4aN5itJ/sTT7FlI5Wsf0/gVa8FimHVqHaVWHbJF7Egdi+9bWJudLHurQOQmYtuS5P8Ab/JsPOqgSuZQr1myC/TQbbjQ6XVV2tiXw5CyREXvYswsbcRbxHrWpfbUp3KB5X+prD0ixjySnUnLoTzbeTfx0rPsHoni8Xqi5Y/iMSi/2ne3lp31S7HU2GCCT8+m69JRdSZQbVrAC1+HLUnbxUc7TmP3j5AD9q8jHzE2DsSeAJJ8gNa6Rsj/AA9wkVjMzTtyJyp6A3PmTVowcEMIywRJGP6FA+lVntA/tA6mfQAfMFaNXtqg21Knm52A+/ouR4TZe0ZNY4pyObqUH/utW0j6LbVP3UH55F/YGugS7dhEixGVQ7XCjXUrfML2tcWOl+Fqq2O6bzHEJhsLCrMxAtISdSM1jZgFYLv1IG65OlUOxtQizvJoHzzKhuPxdYwymwWm424ySLKAejm013xRP4SC/wBBXnH7NeDDifGNKmZivVxKhK8sxe+YkXNgQLA68/W3duTSY2PCnENh4yxDFGy2N3CLcW/CgJJ3seAArAmw8YxlgxZkliCOY5GZivWadWVLEmxIF03ad1atbGFrP5jzHUN9WgeSm2pUIa6q5rdHQAQS24tNp3teORIULF4FVAdsksLHKs0dt5UMFkUG8b2O4/vUaXYaEXjci+69mHrofrXvYsmfZuLiUAMrLKTYXZALkX/pyE/31o8NiWU9hje/A/Uca6eAxDnl1NzrtPjcT7IC6lFlQuc3NBa6OogEW5zsI5BWv/d481/X+KVaeoPOvtbOZcP8WVoNuvklmcb45Xcf2yE287W861m3MW+NxEeDw5IBNzmNhexNza/ZCjMLXvfwqd0ufK+I75JF9Xb9r1VZcRNDLHilGVtCp3jRQh05EcORNa+IPwjhaei3mszEOH5spyzpmiRPIXKv3RGTHYXFDATo8sPB8rZUGW4ZHItkv2bE6HdY6GxYKKHD4ydEKoJIUnZdwDiR0L24ZrjzUmqaP8WJclvZkL8+sIW/PJkJ8r+dOiWz4dpmfEY8O8iugsGyqFsSEVQbge9xvqTvJNQY9tmtM3ttC42Iw1WHVa7cjcoDi3KcxmxgEDWCbjSRcrfdH+1s3EJhyrGOTEKliMpKtnjF91iCuvI19m6T4BpocWrPJLkMQijUs6hyCxZAL3UKe4i9r6VBk2Tg8Zg4p8PE2HV5I0ZVNgUaZYirhTlbRrg772131ZoZurxa4SKJUhXDmS6rax6xUVVI0Gma/E3HI3m2YAtFo36LWqlgc4kOzSZEhpED4pN5nlG862qeB6Sq0+Jw8WGmxOGkYuVWMh0dxaUZW+4WDHtZSCW31n2GzriiuBwAw6pGQ4xBaN3zuCCbCQkAoQD2t5GltZqGaLAYl8Et8QZ589lDNm9oIY5TfMwjsQDfhob2PjoHicVLNNJjUZXaCFULR9WWRGkBbLzzMSdBvFgARUdHAHrptfdWOANJ76YAAAEF5kkCM2UQDYmDbjeCqnjenWJQ4jDSxRSDPIB1g6wKQ7C1zo4U7rgbh4VVMBtCSI3jdgRYXViDpwPMV0L/ABEwEUGHyQ4Mt1jmRsQRfKS12BYdoE6ixstm0ubgc3jhIYhwQRwIN72uBbhff4VS59Rj9ZI9wu92Z3DqWZjImxGuaIvEmLnTx3lXLo7s6fH55faGDg2Ny24KCC1iLLrYW43rRYfa2WVRM7sitYhWuCAbG2uo8OFRUNr5baixsbXHI23jurLg8CZHEaKCT5ADiSeFudZONqEQAPL5aLptolpfmIyxaABlF5uPTgrT0gjws8EZwjq+IZgMkfZ7JUk5lNsoW3vNaqfjcLNG5jkXKR4WtwIO4jvFdewHRWDCw2MjGQjtuBe/EgLvCDx7zwqDtvYKSw52YFRmIcCxW17n8ulyL625i4uPfOZZ0HgPvr9FyMN2pTpnuw4uZJudfCNuA1IvyVO6DBA0pZ16w2RVJ7Vt5IB3gnLu5V0xV6xknjZcwChkYlRcC1g3I8jv9RXMhsSCJElxruM9isUIXrCDqpYvoDY3sBcXFyLi9hwYw5kaB1niARWze0uc8LlRZkIAt2wHTeO1a9q1G44MbBE85F/Mz5+EiCqsdTbUqGo1xOt4tFgRcidtN+S3GG2pDHK+eaMMcyZVkU7zqOySAdCAOZHAG2o6RYpimRBeWUkqo1JOtgB4/wDLWvfpYRjDBHEs2F7UQgRFAe9wuVct73yjduBqfDjMkxw+AWOF1iZ2llXrJQVsuTMSQB7umoHlaj8c5oMgC0zJtziL8tJ3i01Owjm3eNROto52kXiYDp0BlSOjfQdIgJcZaSTf1d8yLxu34z+njvqV0r6TrHCRBKhYNkIjcEreNyo7JuvaUa77KQLHUVTCdKcRNhp1lbM6L1itlymxPVm4UAGxlVxp9ytdhYxJs2YhRnSZXY27RTLkFzvsM7+hrluqFrr/ALmtPjGp2FxtEnnK2fwdR1XPiTJDgLaX4cNtvVbjDdN8TDHAHhzoQftHLlpbMQSr8CCba33Cs21+kDDaGGtIepzQvvIBWXLvHLIw05k34W1UX22ySo9/DTX78rn6Xc/JWtxuHMmEhxAvZGfDueWU9YjHylZf7BU2FpN+Jb9tZ296LaZh6LnzlAMuYfEGDBn03K2m2sW2H2vmk92KVWH/AKecMB8t/U1rnf2XaJLEkxT3J4kI+/zH1qZ0qxUeJSLFB164pGsyfezjMCfD3PK3MX+bT2VPiVgxEcTMzxKj37JzRjq7nMRoyqjX/qNWGqxsF1tRe3zVlItDGd5aW5TNrj6EF3HUKxdNOjELz9auJjiMpAIkJALG+qsN2axOo35jeq1h8HPgsbFGXveSP3WOVwzoCLEC++xBGn61ZNqdHXxMeHEs2WSONEa3bUlVAJ3jtdka8bVPwWxVRleWR5pEBCmS3Z0AJA52AFySbAWtXNr9pUiwtBmQREeAM2Eb6zpAnTRpYk06AY5+axER4Azv4knxuq70bhyTY0EHq7SREgEj3m0Nt1lUnuqmtEd9dJ6W7UEUJiU/aSggAcFYEO55cQOZPcaoNqs7PLqgfWcPzQOuURPmul2cXVCah3LY8BErtnsdKsfUClepyrxHerlfSXDK806tu6xzpvHaP81X5Z3Mb4eUiRbjI5G4DvG8jTXmDVi6TxSNiZo0Ugs5Abx1JA8L77c69z4SPquumIdgoUIFYABdBm35RoddSSeJNTdcL0neNys3001m0e7Lm2KgKGx3cDwNdD/wXl1xa90bW8DIP3FaKfJKQCiZW3WJI0IHEA3BIvu94a17g2E8RL4XFNhnItZyQjC97CZNQN2jLp+I761hSyPDm6KWNq97h3UzYnfUWIN4k+hhfOl/S12JwcMaYeKCVlyodWZHax3AAXUNYDfbWmN/xOxjiPJkRlILMq3L24ENoAeIHkRx1c/QjHMSwaKTMSS4lDXJNySW1JJ1vWfBf4eTsftpo0X+m7t6aD9ajFWTqtQVOz202tdlMX3N9zuTMaGdNNF42Z0qx74pmw7kyzsLqirlJCgD7Miwsq794AJJq/w7E2ojnEDGQSTMmQrIpEYS4bKpS248bC/GvGw8BhcCpEIs5FmkcjrG7r8B/SAB41PO1JHNol3/AHm0HkN5/SrmUiNSfNaNbEd8f5NMARElrbjrFrbC/pGhTZ+1Y1dJsbDGkpbQEO93JLCIFRlHaP3tOFqkw9B4uqyF2CjK7SAhi3YbNca930HdtzsuXWQ5mYjVjr5dwrSba2hiBpEkSsALMwLMTaxI1yjzDVI0xEGT6rYoGoXfynAHcgAePE+M6mBqqFPCytZ1YGwNipU2OoNjVz6LwosSlR2nuWPFrMQPIW3efGqhtHaM08t8TmMhCr7oBIGigKAOfAa3qXh8XPg3yyo6odcpDBlP4gCL25j9xWjQe1lS69DjWVKlAaZtSAbHpuV1ICY5J0IIyZSTayZRlYNfhvPnULGYRpUkWKXNnhcMbEAdkizA8L2t+1R9i7aBTsZXRxcqdxB4jkak4vbKpH2EEY36MSSRxueI5m9u6ulErzIzNMgC2mmnPex9blUfp5Iz+zYhAcrxo4t91wACvcwyqf8AtUTF9JllkjmnwwLrYgh2UGxuLix0vci9/Ot5Fj39gxEmFzZhO18mbsI2Uh1A1yi5OnFr7ritI+KlxmHWNopZJkJtKLsNSp7T8NARqeC+XlzNs4BDSW5g4tMCRJFvzRP5tTYLv0MuQAts0ls5oIDr304gG/MTefvSqYCeDFwiwkSKRdLdtTuNuIyrett0p2kg6qwtFM6NIV0ZogImNyurXEpGu7q9N5rHjtjIuDhhxE6RyIWcE9rR8xKADVt41HFag4rH4Hq4oikk5iXKGa0Vxcm2hZsovoCNOe+tKkWvyQC/LmbI4fpOYw20AC+9likG1MmUE5ZFht+kyYFtrrAYY4saURlMUxaPsEOAkzPGALHXLof7KndENmzpLPFLC4idXjYsLAm4Ayk+9pm1HO9YsNt5xlGGwsS71XLCzvuLEBwRc2uT5mvcu0tpEE5ZFAFzlw5AAte9yp0trVxw+KqtLMou1rSSZJyyQfhm9+e3RSqNrFpYcokAfERNiYNt+PMKfsvopLE72xChGABAXNmsbrmU6aHXQ924mt3srY8UMRhHbViS2cA5iQBqN1rKNO6qFL0gxQJDYiQEEgg9kgjQgiwsRW0wntLdqbFyoLXsZGDEc7X08/SsO7Px2IMF7dpi3nDR70VdbC13iajxeNN400AmFcsLg4or9VGiX35VAv4231I1qoxxs1wk2JkIBJVZJSwAtmJUNcWuPWvuCwAxLZInaUgZnzyvkQfeZixNt+4AmsD+HMSTL3t63Pzj5rUOF1LnaamNOs/VWPFbRhT35UB5Fhm8l3n0rVYrb5PZw0ZJ/FICq+S+8fO3nWTD9FXBurQBfsbOhLKwlkyXUjLcjke7UVOTo04crJLYdZEgKIBnV9Se1msQLjiOya38P/DtFt6ri7loPv6qIOGZq6T48hsDxG5i8gQVRMdszEEmST7RjqSDc+lh6AaVr4luyjmwHrXQtoYAQtlaRnkZyVUZbLAuYBpLD3mNiLfQGq1tPBgYiJgLZ3APjmAJ88w9K6dbDNY2WaDb7LsYTGCpERGxFhb6c+RXc6UpW+vny550m2nN17RoFXI4IIJDarZm0ANyrMN/KtM7SNmzNfMLHduBVsmgvpnBt425VYtt7ExEmIeSOLMpIscyclvoWuNQR61p8TsvERk9YmUka6puNhfsn+kelTEBepwzqQYzKWzlG4mek8dlW8Zh269VBFpLAKDuc5RcgDS/ZGl75e6rW+CgaJSrSFmCsTYFDnGaw1FrajfvBrUPASytaxUgjQW0YsND3k679TWw6Pwxqsi4h3FnVozvBG8jQHVSDa9vf07olomVbWmMwOnC8qIMDGsmjHKLElQA5HGwJsDfjep6YhFd4xGxIF1zsSDbUgmwKm2/eeQNY5XXISoIfNoDYgLcA68TYm35TzsYiZgbjkRw3EEH1ufWshoUSzvR8W1rkj374LZR4iI2ZYiOdrML2BsDpcAHfYbjUrD7QUEHK3AbhvNu/kw3fxeuo8+ZU0C3BL6HkMxBN/d0IHjvrc4WKK13LKdOIO62gsN2n13UsqqlJgF5PSSvPSTE9eY5IzKhRSoIYoQQxF0Knedb+A8K1GI6Rsi5MVB1p3LKjBM351ykBu8aHlViwWAhkfIrlma53eJ1uOVxv8LVFxfRPEHMhiDrc65kAIvobFrj9qzDd1mk7DCKb7RpJgwTsTr4rWdHelcHWBTGkLHQOxDLrwL2BX0t31P6f4ZJYUjjZWmDB73+7YgnS9gdPHyNVfbXRCeFrZRqLhWZb2vbQjQjxsa1i7FxA3IR4MB9DUnUmPETYrbbhMOara9OoLX1B9Z05eqz7Fknwz5ZFYxk/dsxUn7y2O7mvHx35OkmNllchFfINL5SL9wFtBXlMNjBuzebK31JrOnto+6D45P2Iqr8N8OQOt7srzRp953ktnraePvrwWv2NtDE4eQPFmW9gewSCt+K8SLm249+pqx7c6RzucuDjcD4hUhz+UEdgd518K1+bG/DX1X/AKq+H238IHhl/c1z6vYeHq1BUeZI6evH3yU6jadR4e4Nkcx68YUvY2Fbqy0uHaSYu3bcRuMrJlGZpGJJViGAA8Sd1bqPMCcmEw8YYqSCeCjKNFUAAh3U6n39NwqsmHaBFu0B3Mq/Q1jw+w8dM2RVZm1NjKOG/e1q32YRjRGZU1KTHkue9sdTEf8AICOqtz4qXLZ5cKdcxup1JiML6Zxa92YgD7x8Kje3HS+NiWxVtAo1VxIvHmo043N9da0n+4G0f/Ln/iR/9VYo+i88UyrikygAORmDXFyANL7yD6Gp9xS4/P7qApYbao09Ms24CSpezdhRRt1mYud6lrW/MLce+rrhsAvsgvCusQxJlIXNmz9YEvvuEFu4ACtAwvUHa2MaO000knuiFOrGQBMlsu87wrE/9qrJp0gBIaCeIEngJ1PLVVV21K5HxQZnfbQCPfIqz4jDuuOxjyFUWbDyRxM7KgLBItBc3te+tuBqsdGp0wc2JzlZVMLxqUDvFJI2UqgKjcbEX0G/WoUJllUSxQLIGFg8j9YSBpbU6W5cK95MfwjVRyGW36mofjMMJBrM2/W3bxU6VIMYabntgta03A/JYXlx09ZPCN5httTqH6yPrCXw7LkISNFhfrOqAPujSwsDvrKdvYo5ezGtp2nGcsSAxciJsosbdYdQeArS4b20f+JErDmCoP1sf0rYKJOKEdxIv+hIqTMRh6jstOoxx4BzT8ioPo0Z0aeh5BtoNrD5r7JPM5UzMhYArdQQxBNwHa/aC6gaX1OuprV4ucNiYIwbkSIW7izrYeNvqKy4rB42VsmFy3PAdht1/eJt51i2J0G2gmJiklgsqyIzEyxHQSKzHRrnQGqsQ90ZA07X8VfTdRpAuc9ogGGyBsYtaOS7XSlK2F4tK0XSaK4U8wR6WI/et7Ws27HeMHkw/W6/5qwFfh3ZarSueuNTXmsuLWzGsVWL0gKUpSiyvq1mfdWJBrWWXdRYK23Q6O89+Sk/pb/NV6qodCY+27clt6n/APNW+oHVcHHma5VS6bx6xN3MD6rb6mqsauvTOO8Knk/6FG/fLVKNSC6XZ7pogcCV8pX2vlZW6lBSvqCiLPwrddCo7zM3JPqR/FaSTdVo6Ex9mRuZUel/5FROi08Y6KDudlaKpnTiP7WNuaMPlYf9dXOqv03TSFv6nX1jLf8Ax1gLk4N0V2+9lUKk4/Awywqk4OU7iNGDC9ipP3t+mul+ANRzW1XEZRAimzO0f3SR1eY9Yb2sOypG/TMO6uR25Pd04BMPmxI0a68gGI1ld6oXCC3VaHAbHw8BYx4jEAD3kRio3MbP2RwQ8RwHEVvUErbo8g5y6m3AkDUGw1B5nXSokW0ZWVCpuywq0yqt26wTRZ4yLXVivtHZ38eVSIcJmzpPGznO5LlgUtmbqzEQ+ZSA1uyotxPPg1MjZdVbe/5jmNtSGnu22B53iATcVVXOJl5v1E/4+G5XhY2Izmfs5QwYpljOYHK1zYEdodnwvrrXrGixH5RULb2zZpoosLHqFKdZKQVSyIUUAfeY5gbDS44cJGJiEapGCSEjVATvIRQLnv0re7Ird7i9RZrrCNAWCbAa3IBEgdVJrW2INzNoGnExxK2vQqG8zNyU+pIH81dqrXQmG0bvzYD0F/8ANVlr05XFxrs1Y8rJSlKwtVKibTF4pO5SfMC4+lS68OlwQdxFqLIMGVznaqWeoNbTaadlSd9gD4jQ1q6mF6amZalKUrKmskQ1r1NXyEV9l31hY3Vt6Fx9h25lR6An/NVkrR9E0tATzYn0AH7VvKiV5zEmarjzWr6Rx5sO/cVbyV1J/QGufMttOWldL2lHmhkXmjD1U1z3FR6luBsw89ay1dDs1/wuaolKUqS6iVkiGtY6zQiiFJquvRGO0F+bE/oB+xqlSb66BsGO2HjHdf1JP71ErndouimBzWxrRdLo7wofwyofmun+et7Wr6SpfDSd2VvldW/aohcqiYqNPMLnpFbrA4hcijMBYWILW3VrcXDYt46eetRq1O0MAzG0xTeSIM28Rv1Xo3NDwrGZl/Gn/EWoW04OsX7LEdSw3Msgt4Oh0YfqPUHU3peuSz+GaLTIqO8m/ZQbRymQfRajF9GcbM467FRML+8ZrgDiVWw18h41YscRfKCSAALnebAC59Kxw18fVhXVwuAFB+bNMAgWAAkgmw3MDgOV1e+o98AxbSBGv+le+jEWXDp33P62+gFbaouz48sUa8kX6VKrcXl6jszyeaUpSiglKUoipG24rFxydv1JYfowrQVeNvbKLhnS5J1I46AC48gNO6qPLhGDEG9+XHzG8VMLu4Ss11MCbr4TXwGvBwzcj6UGGPI+lZW3mClxV4Y616WAjfp4m1bLZXRuWRgzAonNhYnwB1/asKp9ZjBLirZ0dW2HTvufVjWzrDh4QihFFgosPKs1QXnnuzOJXy1c/wAZHZAOQy+mn7V0GqvtzYrHM0YJBJJA3gk3OnEXPD0rIW1gqoY8gnVVGvhNJMIwJBBuOHHzG8VjOGP4T6VNdwOCyA1Ii3VEXDHkfSpQgI03edYWHOC8g9qulYKPLGi8lUegFU3YvRt3YPKCqcjcE9wB1HiavVRK5GPqteQGnRKh7WW8Eo5xv/ympleSL6GsLQBgyue4/VQe6tbVm21sJwPsgWXhbUgcrbz5XqsNhGva2vLj5jeKmF6GhWY9tihNBWM4Y/hPpX1MMeR9Kyr8wUyPdTDJmkVeZA9TavggO7jyvr6VvOjvR986yy3UKbgHeSN2nAeNRla9as1jSSeiudKUqK88lKUoiUpSiJWGeBHFnVWH9QB+tZqURQDsqD4SeQt9KDZUHwk8xf61PpRSzu4lYIMLGnuIq/lUD6VnpSiilKUoiUpSiLDPArizqrD+oA/Wox2VB8JPIW+lT6UWQSNCoA2VB8JPMX+tSIMMie4ir+VQPpWelELidSlKUosJSlKIlYZ4EfR1Vh/UAfrWalEUA7Kg+Eg8Bb6UGyoPhJ5i/wBan0opZ3cSsEGGRPcRV/KoH0rPSlFFKUpREpSlESlKURKUpREpSlESlKURKUpREpSlESlKURKUpREpSlESlKURKUpREpSlESlKURKUpREpSlESlKURKUpREpSlESlKURKUpREpSlESlKURKUpREpSlESlKURKUpREpSlESlKURKUpREpSlESlKURKUpREpSlESlKURKUpREpSlESlKURKUpREpSlESlKURKUpREpSlESlKURKUpREpSlEX/9k=;" vertex="1" parent="ZejM4U1-Lfs7wTc2lEzZ-43">
          <mxGeometry x="512.5" y="156" width="75" height="75" as="geometry" />
        </mxCell>
        <mxCell id="ZejM4U1-Lfs7wTc2lEzZ-80" value="" style="shape=image;verticalLabelPosition=bottom;labelBackgroundColor=default;verticalAlign=top;aspect=fixed;imageAspect=0;image=data:image/jpeg,/9j/4AAQSkZJRgABAQAAAQABAAD/2wCEAAkGBxETEhUTEhMVFRUXGRUaGRYWFhYVGBcXGhcYFhsWFhgYHyggGBolGxcWITEiJSorLi4uFx8zODMtNysuLisBCgoKDg0OGxAQGy8lHyUvLS8tLTAvLS4wLS01LS0tLTUtLS0yLS4tLS0tLS0tLS0tLS0tLS0tLS0tLS0tLS0tLf/AABEIAOEA4QMBIgACEQEDEQH/xAAcAAEAAgMBAQEAAAAAAAAAAAAABgcDBAUCAQj/xABNEAACAQIEAgcEBgUIBgsAAAABAhEAAwQSITEFQQYTIlFhcZEHMoGhFCNCUrHBFWKSstEzNGNyosLw8RYkVILS4UNEVXOEk5Sjs8Pi/8QAGwEBAAMBAQEBAAAAAAAAAAAAAAECBAMFBgf/xAA4EQABAwIDBQYFAwMFAQAAAAABAAIRAyEEEjEFQVFhcRMigZGx8BRSocHRMkLhFTOSBiRDovEj/9oADAMBAAIRAxEAPwC8aUpREpSlESlKURKUpREpSlESlKURKUpREpSlESlKURKUpREpSlESlKURKUpREpSlESlKURKUpREpSlESlKURKUpREpSlESlKURKUpREpSlESlKURKUpREpSlESlKURKUpREpSlESlKURKUpREpSlESlKURKUpREpSlESlKURKUpREpSlESlKURKUpREpSlESlKURKUpREpSlESlKURKjnSbj7YdkRAGY7zJAGw2I1Jmu7fvKis7GFUEk9wAmqrx2Na7de427GY7htHwED4VrwdDtHS7QLzdpYo0WBrTDj9B7t5ru3Omt5RLCyvnPy17VdDBcexLiSmSfdzWb/aHIhoya+LD4VCr7grqgfwOT1JfYep8DWh9HQrJw+U7ZUdZmYkz2cvOd/DlXavhnk/8AzDQOYM+dx6KmBxuHy/7hzyeRZHlLHT4uBGin+L49jQ/VquHVspb658mgIGnVuwnXYkHumDGq3SHiPV5wcCe1ky/Xh5zZZCtErzzbRrtUa4bi3srdtWVvIjNDDLbIfsxmU5GGWNNSNtqxXMfdnNnxxNtstuGtKI0XOi5RlWCRMbA1kdgsQd3oPwvTZtTZ7bBwjmCT6mOklTK5xjiS5izYABRJM3suuyhiQJ23jcVj/T2PCK7/AEUAjMRkvKVET2+sZcvoRpUcxF9lVpfFXQxkoH95t5hAoBmO0SNhrX25xglWz4d3YCMru90spMaM9wg7nQwafA4gbvMqRtfAuFoPQfyPwN8KXtxvEC1ZdjaV7sfVtbviNJMMJmNNYA132nknp1czFYtSPHT1VyPhNcTFcdxBkBb+lskAXRlYzHVgZzy1108q1E1clrQ2nOcp7XdB1B8RpWinhKwInL4g/aFgq7RwjmmM/LK5o5/uzceBJ4hSwdM7/wB218/41nwPSi9ccKRaUHdiDoOZ1bXyqGXbrZiMqkQIOZZO8iDtHxrHcd5OW3aIhIJYCZ3B00g/A1sOHpQQGheUzF4iQS8x1A/n2VYl7jlxSO3ZIMnbYAxqOs3jWP8AOvn6du5iM1nYx7sEjlpdMCOeuukVX+e5mMLay6c9SDuCNhrPfNGZ8xyizl8XhyOZMCB5a/CqfCs9hdfjqhOv/ZWAON3PtPZBkDKIJ90kkE3AI0ie8xoaHjrye3aAiRIBJEwR/KRIkaGJ17pqAAtLaWcumXedtS/iDO0eYr59blGmHz7EdoJExo247PKDO2m9PhW+wnx7/Z9+PuZ/+nbn37MjlHiBAPWQdDOncfOtXEdKbyOVK22AO4kZh3g5iPxqIgn+j8/ck68tY2HPvr2sfdt+o7/LepGHYNRKqcbVcLGPH8qVN0vux2bSEz94gAeUGTWA9MsWJ/1LrPG2z+h7B1ri2T3Bfgw8PDz9B8N20CRzQ+BE+tcKuFZBya9StlHG1Mw7S45AT6/hZcR7QMVACcOvhu5lcj4ELJ5cqzWum+NYQvC75eNjKjzkrPyrSvJix/J4p0B+8ltvDuH4V8t4DiJ1PECCeQw1lvxGtea7umCQvWYQ4BwXQHS7if8A2U//AJn5BKxP0x4mCJ4YwHncJHjISvFvhvEjM8Sb/wBNZFZk4PxAxl4nP/hbXyjf5VEhSsY6bcQIn9HECY7TsvoCgJ+E1lHS3iJMDAjXXV+XfO3fpM+FD0exwYD9JXCDJb6oA89FgmPKstjhmItZmOLaNdWFrfkdbYhjpoTz50lLLo8E43irlwLiMMbSsNCCDB5ZtZg7bbxUmqvuF8HxTszG/eBU6ghAGnmmmUryMHfu5zrDMSonfYyI1HOOU7/GrTKiAFnpSlEXE6YfzO9Hcv761Vuc95q1eln80veQ/eFVbh8ObjpbUwbjqknXLmk5o5wATHfFetgqgp0HOdoD9gvm9q4d9fGU6VPVwA4DU3O+ALmATGgK8Z2729DXH4txkqCttpbmwO3grDfz/LexeNcP4TherTEq5Z5AuMbrMYgFiyaD3h3DXzqueP8AA8l+6MKHvWVIHWBS4DFQcrOgyZhMenOsOM2m9zMrBl4mZPoInfryX0mwP9O4WniBVruL4EtBblaSDBN3OzQdBYTrJsOJcxNxt7jH/eNeMzffPrUgx3QzHWrJvPaAUCTqCQO9lBkRz7q9cJ6FY3EW1upbGRvdZmVcw+8Adcvj6TXiFhJuL9F94MVQayRUGUGP1CJ4arhWsTcXZ2H+9Xa4Zxtj2bhJPJjLHloxO48f8q37Ps/xBxX0YvbBCC47oWKKpZlG6gkkqdPnXYtdDbOFv4e4uLW6UxOHRkhQc5uLp2ScphSYPIHWtOFdWovz07Rrw8R/5x1heTtT+nY6j2VczmEtInMDuIdBg7r2OjgRrp3C4MFWUxmh1ZSV+/BAkeNeOsbvNTjpP0fu4m/bYOtu0iMGYjMxzMpIVTuewNT386gzFQWUMjZWK5kEo+UTmX9U/HVTqd6+lwmMFXuOHe5Cx6XJ/O5fl+1Nl/Dt7ak6WcC7vA31s0EGLRJ4jevvWHvNOsPea81r8RFzq26v3hqBoM0am3J90sJGblNbjZeKJJiVnu4sKQGdQW2BaC8a9gbt8Kw/pVOre4GLKoBMcwUS4CJ5ZHBnz7q0MJw+/IY3MrwMxAzEns9ZGgCS9sMp5F7mm1ZLmFSwsW7IZWGV02GRBceYAgnXL3ns66VVdBE6yevnfpzO/RbY4mOr6wSZcJHZnObgtRI0987/AOVYbvHURsr5lYWzcbVDlAVnMgHNsh1iNVEy1a63rWtpbEqz29YORi4nrJjtQ4gvyMGsWEFtyE6nIGt7o5ECEi37gG1tARyKNoYY1Hv3ZWjWQY66Dzv01kdQu1YxoaNSM0wGBQmN4U6n/nW9bc95rgPwftB0uOGgpJCdlCIPV5VGR9XaebNrsI+8Mt4i1lte8NhmhFSzbUW1MgMc7NLxqYAmKhy60hOhv48+g09zZSe2x760eNdKLGEIW6XLEZgqrJI1EyYUbHnW5bNZOKdFsLixbW6jNcBAzIxDBTuD3Jrr/wAxWDFVezbbUr2dn0RWec2g1+yrPi/SPDuxNtcapJJJ+mMoneAsOAPiK5F7i7soVLl9FJ1BvFzOoktAI8gBVxL7MuGOCFtOpEAnrmJDDvkn18orlXPZPaVzDk24XLIBYNzzHxrx3VCb/hfQMaxggep/KqoYu6VY/SL2hGhuMZk+Jr2A0sBeu9lMw1iYAkb6c/SrA4x7O8mVbKsQ1wg5pDXI5yqFbNuZMtyGgJIFd/A+yvDHV7lySIJVthrosgyPd3nQVM8leWqp7OHuEoOvuDOhaZPKezvrtWzZ+kutsHGX4YHRrlxgoHKM8GYq1bXsqwiMGbEYsqCFC9ZaWQxyxmVQQNZ0gxXfsdBOHIwUWSeYzXGYgcz2j7u23fUymYcFSOHtYjKoGNu5SCcha7k0IGwcAHWrp9j4b6NezGT1gE57jhotrr9YzZd+Rrqf6FcP/wBnT4CPwrs8G4TZw6stlAisxYgfeIAn5UlC4EWXSpSlFRcvpGJwt7+rVKY3ib27lvqZNxXVxAntrOgHPxHfp3zd/Hf5ve/qN+FUz0O4raw2PZ8TpIZMxE5Czqcx5gSrCfHumrPrObQ7MWzOueQ9+UrtgMEyriziXNzGkwlreJJInmAJtGpGsQZpwnjWE4sn0fEW8l4AnIZGo0LWzuCOanUa7ia3+h/D2wrX8GzF1TLdtMTByXMykabENb5d86TFY8PY4PYutjVu2Q7F2nrwVDPOYouaMxk6DvMVx7HGMdi8TdxGAtobSqlgNekT2s5cLmDD3hvyUaSSK4CWkOdry1I/C1viq17KMimQCQ4wGu5E+Q3kTIsI6/Bb925gMal1jcdLmMtamdgYUdw7UAchArbx1h7iYBrBy2VexcYhsg6lbZYA7Ss5ez3xyBjiG1j+G2L909ViBcdrlyMylXaAzAQAU0EjQiPOPeF6NFbNqxisXdTr2I+j2oVBmBuNZUQWCQCDqB66gTEQfeiq9jZLw4RIiLg273dFxEyJAB3GF1cTjbeHx7da2VMTatqrtoue01wlSdllbqkE6aRUNxHRa3grwxb4tCiXbTompd4uq0GDqcubaZ30E10rHQ/D3cbe6xrhw+HW0oVrjMSzoHK5jqqAHYRqRrXPw93g93E4YYS0y3DftDtBgGtgls0MSCCwUaw2tc3979QGtr+fW/RasNFP+05xlozw0ERq2ST3ZFiYIvIlSTjfS7h7HqLzq9m6jBmQlo92FfLquYExHdrprUCxuLwtq+bVi69y1pDuIyvJ0BgBlAjWOek1N+mfRJ8biVIZbVm3bguRmJaWOVVkEwIMkgdrSdaqPG2QjsgcXArEBlOZWgxmU8wau6vVpVA9u7Q8eIPIqcHgMFjcOaNQkyO82dDJDXAxZwtEeIMkGecIw1u4w6x8ixyEzMRl9Z8ga6PFOjVxLzW7QNwAB5MLAMjUkiNQajfR66YtkySMviYAEac9c3zqzeN3VK3ZLW1uBMt027nZZGnKwKiJ0g+J+PvnEPOR7dHAW4G3idSea/Pzs2lTdXw74JpPIzAxIGYb5aJgC4hs3vdQi3wXEszKLTShAaWCgExAkkAkyIjeRWfh/A3cXGuHqkte+xUkg/dC8zt6iu9huNWuqNtr6tdVxc6y4j5HPeMuvZgASPsjTuxYHHW8Rav4e5eUO7BhcIyBjK6a7aqBG8Hwq5rVoMiBa8HSbkTu38Rw1jizB4WRD8xIdAzN1AMNMGxmxI14iRPLu9HLrLbayWuLcDEAgIRl7xJ08ZrZPR8fR8yh3vk6RlCiNWXWCxCgzEwRHKt3o5hGs3Za4HVVeVty4tg6ycogSRy1r5b47bNm0RdS3dthgS6O5GaAXSOySY5951HOjqtYmG3A3wecTHTcPtPVmFwrW5qgykgiCRaMslpO+5IkmI3QY4GH4JiXUOtolSCR2lBYDcqCcx+ArNhOC4l1VltEhgSpzKJA7pqR4LimGQWbmdhbUODmt3GIc6ntQQBpsvp3e+G4pf8AVur+sCdcGK9iSwJVVFzKXaDJA2+Io/EVYPdjqCNxtrxASlgcPLQHkkxo4HUtEgATFydN0kqOXMHcRVZ0KhpykxrHIxsfAwa7XC8dbzG2pYNodVIBkBpVtjvHhWHiGKVsHZgiTduHLIkAs51HxHrUY63GjG2SpBwhEXB2JQw3a17W5TadjWXGMfUYHRcEj7fYLfs99OlULc1nNabxrExuGhPsKatjCtxlYe8VUaAHeZliAYBPjtpyrFieL3bOJTDm2H60/VsWAlV9/MBJkLqIEHbSJqqumXTPH2Ma6WnVbaFSgZVYXBAGZidYkEaQYrq9MfaEww+FbCX7XXOC9yBbum1CgZIcHIxLtynsGvMDSDf3yK9qQdLqxsFxZL6hupfsZpOWCrAldM0A89QTz8CehbdsgJkSBygg8wRrBB3E8qoDBdJeIYl7eH+lkBmUzFtO2JYZmVQWUanLqPA1Jr/tPx1trdpWw7iEFxmtPJcKvWNGZQJbMRoNCNKkNMXKZZ0VvJiNqwHCWzcRpOZC2U5mJAaCVMnUGNtoqnl9p+KCPLYXMbgVQbfuprLZQ+vLUyNK+8T9qWIa5mt31tICgCLbS5mAHaclkJkknQdwHeTcSN6jIfZV6ljGm+lbGHJjXvr8/wCD9qHEJ7Ny5eMk5eotxvoAVCkCPM+NW97PsZib2E6zFSLjXHMFlYhdIHZAA8htSDqhEb1KKUpRQtHjKzh7w/o3/dNULxbh89pdxm8uZ/h/iav3in8jd/qXP3TVMsoIg16GGw7a9F7HcRHI8V5OL2lW2djKWIpaw4EHRwkSD9DyIB1Chp8zVo+xi79XiU+6bJ9Q/wDwioRxHhc+7ExzIAI130j10rp9BOkScOu3lxSXFzommU5gQWIkNrBDHUV478O/DVgKnnuK+5O0qG1tnudhySbS39wMiRHTQixHiBJsbcThvDHwt28l29c64IqmT9YCJg6gCcxJ0kkakiepxHpBw9xh8a+IUG1mYWQym5mdAChtzmzCB6TtrVN8c4il3EXrlsFVd3cBgA3aJbtQSJknma57Xz41TtYsBb+VI2c14D3vIeTJgAaiC2N28T4wrixHTnBWcW5Rzds3kTrCiMClxZUN2gM0qQCBtlHlXDfiHBrF21cw3Ws/XWWkhwtq2rywAYCQVkR2jMbRUa6NdFMRjCDHV2ed1xpH6i7sfLTvIq4uDYHDYS0LNlBHMkAs55s5jtE+g2AAqzQ94vHl6LNXdhsNDabnE6OAdAIHzWI0tHDXiePxrpxw64xw91ussXEgsgfQzs0a6iPdmI13qvcZgsKbpGF625bzLF24MsnXMirlEj3dSBMERFTrjWN4ejHqsHhrt3/ureVT3uQNT4DXyqOu7MxdzLHwAAHJVUaKo7hXo4fZ7q5zVf0/U8ui+dxX+oGYBhZhS7tDxcCAeMRGYbhMfMCJDul0RtXFv2zbTrGWTlBA7OUrudo5TzipdjLWZMQ+GcZnBF624kqRIJGvZPvaGQY0iKhPDOIXLFwXLZEiRB1BB3B8K6T9IIS4lmwLRu/yjZi5IMyBm93c9+9epWoOLwWi1hysZgjlugTK+YwmMpMolr3GSXE6zJEAtMHvH92Yx9VJBh1y3bb27a9XZBKKJhoJDZyBqe4E7bmvlzheHLG2LSgHD9ZILSDMCCT5+fOoe/H8QAJvtABAltIiSD36Kd+6vNrpDdS71nWksogkiREkQTsdQdBzBqowtQaH6nW3vf1Wj+pUHxmYT1ANpPM8d0BTjB4NLTNatosDDSzwZLEnc9xgmPCvi8MsO8hUVcRZAUQJDhZJHdCgE+IFQ+90luMoS2RbAB0VnMKdCsOTl5aECK014ncGQi7HVGE19wuQsDzJAjxiq/C1DfNB9/ePCUdtKg2GhktHgBugaH9JPC/UkTqzgFu2xZcnqxe6vICADktmYIEjMQZ1+0eetYuEYiy99LQs5WtXLpke6AVIA75IAOvdNQpeMXWGUXSRPWwCeeucHv5/OtpuN4ksrG82ZZgztIg6bbVY4R0ETxjUQeNtZFr8NVUbUpZgcp3TIBkAzEk2g3HjYartcbsWxZs3VQIztczRImGMTJ1PjXJQ16/SbNZFplU5To5HbAknLPdJPrWJL2UFyCcomBuf8TVv7TCXbpPhr7CrIr1Whmrso0i8AHhv1VZ9Mujl5L928qF7dy4zZlEkFm1DDwaRO1RlsOwJkbHXw8POv0CjW3BVjB1jbeIkT5isI4ThkRVdVljALASzGW9TqYFfO9sXGV9dkDRCqbov0f4gzW8ThMPnNtwysWtZZHLK7iYrt9IOjPGsZce/iMCGuAAEoLCkgbZgjy7RzMmIFTng2GOGxDZ78WGEW7WTQMIPYO5J7WnOpZhsTe7WdQQTspzELEGTlBPp8altQFQ4QqB4d0fv3cxtYN2WIEW3Pb5gCJbXT8962OG8LvXLgtrhXzA5HHU3Fy3dwrZwApywYPeO+r/wOHQXM6GNMoURAkknXczI5/ZFe8dcssq3TbZzbLEHKVZIDKxAaDtIAgzO1dCRuU9odyqHh3A+IJct2Rkt3Dbd3QdXnRcxUOwHaGoMQTprVudBMJetYRUvsWuZmkn5fKsOD4raugZSXcK7o2UxoCpUtHlpzkHurtcKxHWWkeVMjdfdOsaSSR5UBnequJOq3qUpUqq1scPq3H6rfhVJjEiJ19/J8Zyek1eN5ZVh3gj5VWA6B4n7g9/P749/efXltXpbPqsYHZjGn3Xg7aw1WsWGm0mM0x4KNLi1MaEyEOkH3wCNjruK94PiRI6pQLtsa9VftLctjY9nNqh1+zH4Th4ktrDki7mU+6YLsdIG4J10GvhWja4zg191mET9m5zyz+6tbn1cO8Q5zSOoXmUsLjKRz0qdQHiGn8Ld+lcOaWuYBREyUZo0KA9nMI98fOt3C4/h1qGTBMD2oLIjkFc8wXcwfqz8q4X6VwUFczQZkRc5lSf3E9K9Hi+D+8ef2bnPrJ5f0j+tYvhsFucB4hescftfLl7OoerX6W9+ClGI6ZmJW0R4uw78vujfyBrTfil2+DNzs6SiwF15EgnN5SRXBPFsHEZ2gcou97n++fWtjBcQw4nI7amdQ/5iu7GYRhkOb4uBWSu7aVRpHZ1B0YR6BdCUSBt8KDEp3/Ij8R/iRXPfjOFLhCxzGFAyPzI0n0qXp0ExBAOQQRzccx/CPStHxNL5x5rzhs/EfupP/wASPVcPrVgGdDtOk+tfLlwBS248NfSt3pDwVsFZFzEqOrzhQdbkMczDTU8jrUdbjuEIgsCO7I0aGdsvfT4mj848wo/p2JJtSeejSfRbWLvq6sNQO3rKxIEd/wCuJ8mFYoBBEtuEJgHXOQ2x+9cmfujnWEcawf3j+zc/V/4RXxuM4ImS06k+7ciTzjv/AICo+Io/O3zC6jA4sf8AC/8AwctlE0BWe3A1TPEoLg+3M5dSxJzZG5kVkd1KtrEOZIAOucpty7YDeVaVrjeEEAO2kRpdOyZOY+7pX1uMYNtC076ZXgyc+oj7xnwqfiKPzt8woGAxkiaL937D+FntXlQzrB0AgDUbgdrXeAsVvWL4bl3ayCDoDoR5itBsfhozSYE/ZufEx3/wFdTothhjTc+jdsoFzlswiZAjPuezy7qfEUvnb5hH4HEm/ZPnm0rKjVmF4Dfb/B/Kum3QzG8lX9pahfFuKW7N17N1irozKwysdQSpgjcSDXN9ag4EFwI6hdqGDxbSCGOB3QCstrpjhlutbxIa09tmAdVLowggMQO0pIIOx86lfC+MWL6zbu27mWBKkSDrBg6qYnTzqsOI3MHd1cmfvAOD6xr8a5WGSzauLctX2BVlaGRxMEHKWUDQ7bc68N2AJk0iCORX1TMWYHatc082n6WV2YjhQxD2utBKWiSBm0ZuyQW56Qa7qcPU89THM6x3kfie+qU6UdKsTiLpbD3GsWyqKbam7MiZbMLYKkzyjYVt9Bumd3Duwxd2/dtELlMvcKHX70GDI2nYVQ4asBdpK6iq0mxhXNawV7O7B9JXIoGijKs5j9pi2Yz3EV1BiCB2hB7z/Cqq457TELW1wGZm1zNeFxbZEGFVVMzOskDaou3H+IC6t1sYyuWzQHvFC+gH1fu5QABl2q/ZOabiOpj1hRM8T0BPpKtzjXGsDg7ytcv27XWtFxQwDAlQi3WRe1l7IUtsND3mpJwEWuot9SVNsglSj9YsEnZ5MiapfD+zHH3kFxmDdYqtmlQzA9oFsxMtruddat3oZwpsLgrOHf3kDTqDu7NyAHOo7PKJn6j7KM4JgT5ED6ru0pSoUpSlKIqQ9qGCi5d8HJ/ai5+DVW5FXb7TsHLkx7yKfiCyn5Bap65hz3VQrbQPdWllr6LZrZTDma3VwZjaoXUrlZK6eATs16t4GTXUXBZUqQqvMhcTg+GN3GW172/LT5xX6nAr86+z/CZ+IWvB1P8AbB/AGv0XVgslb9Sh3tYwnWcMvgCSvVsP21H4E1+drS6V+pelFnPg8Qv9E5HmFJHzAr81vhsjMvcSPQxUOXTDmxC0IoFrffDg7V9s4SqrVIWgbde7Kaiut+jzXmxgzmoqyvOO0tmrR9gmDy4W/d+/cA/YX/8AVVrxe32QKur2U4Tq+HWv1izfOPyqwWaqe54qY1+cParhcvE7+mhcH1t23/F2r9H1SPtjwv8ArhMbpZb161D/APGtSVSiYeq0Za2OEYey3WG8t1lCQgtKSTdLIoWYgGGO/MjQyAct6wQhPgfwrP0a4vftMtq1cFsMxbNEmQFbKJZQcxtIoBIktuNx6GCnsnRx6LnjIzt6LvYpcKAxF3FsoBc9i5PVFG+sXOkBWKqMzaeKjbxawVqbYVsaFUKpBt3swDBwqLltRIPVkjmCYmitdIE31+yEVrdsZHtLetqtsLfg4jKWJDSp6xZOiis1u5ca4t5r+HSX7edFS2oAxatol73x1zlgIBa6pzE6vcwND78lwhRu/hLaX7XVLeCMk/XLlYmbg00AK5QhkSNd+7btWDcxFq2NywHxJitezirly9atOqL1WZYSSCVtLZzEljPZsoJEAxMa1KugvDs/EbMjZg37Az/lWbGznbPD7laMNZjjzPoFe9m2FUKNgAB5ARWSlKzKqUpSiJSlKIon09sSiN/XX1hh+6aqC5ZGYgjnV3dMbObDz911P7U2/wC/VQcSYLcIIqjlqw5suW9gDYVmtKx0it23dXuFBihULTCWcFGpr3jVAQ1r3eIchWjjrhK6miq4qTey7CTjFbuzH0RvzIq6qqX2QW5vMe62x9Soq2quFiqnvLHdthlKnYgj1EV+esdhh1jA7wpPmVBPzmv0TVH9KuH5b9xxoVe8seHWMV/smocrUTBUdTDeFbWGtBdxWxgH7wKzXr4XkKqtq08Q/cK2sLYWJNa93Gr3UtYgEUUFa/ErcsABM/nV7dFrOTCWF/UB9e1+dUNbvk3gB3iv0RhLeS2i/dVR6ACrNWSudAs9Vp7VMMDdtk/ast/7dxT+Fw1ZdQj2l4cMLBPfdT9tA3/11J0XOmYcCqmbD9pQVzLzHeJ1Fe/oGA1m02ufcN9oQZ7XLl3cq3r90W4B1rVa+CdAK60MTUozli6tisBSxUF5cInR0a8fe9F4RgSP5Jtgv2pgGZ973vHevv6Jwc/yXMHYxpy973f1djXm5jwo2rBYxRdvCu/9SrcvL+VlOxaHz1P8/wCF1MNwjCoQ6IQRmgmftaGZbXTQd1S72ZYQfSHfuVvmQPzNQ+/fhasH2UWvq71zvKqPhJP4is1Ss6q/M5amUWYejkbMcySfMqfUpSqrklKUoiUpSiLncft5sNd5kIWHmvaHzFUl0pAzzV/VAulvs+GI7WHuC233GBKT4EaqPCD4RUFdaTw03VV2sUFGta74wE128d7NuKqdLS3B3pcT+8QflWh/oDxT/Zn9V/jVIWzOziFz1vS2leeIX4WpFw32d8T52Avi1y2B8iT8qkvDvZKzkNi74Cj7FmST4G4w0+C1MLm6o0GZWx7FrRK3njSEWfE5iR+76irQrS4Xwyzh7a2rKBEXYD8SdyfE61u1dY3GTKVVHTq0VxF/TQsrDyNtJP7Qb0q164/H+A2cUmW5IYDR10YeHcR4H5b0UtMFUJaxMSK9XMQOZqU8X9leNVibFy1dHiTbb0Mj+1Ufv9AOLA64dj5PbP4MapC2tqMO9aF26sVks3ABWza6A8VJ/mzfFkH4kVIcD7NOIPAfqrI5lnzn4Kmh9RSFD3t4qL9F063GW0Gs3EHqwFfpGoh0P6B4bAHOCbt4/wDSPAyzoRbUaKPHU67xpUvqwWWo4ONkqLe0KwWw9th9i6rHyKPb/FxUprFdtKylWAZSCCCJBB5EVK5hfnfjjQ9av0hRVo9JvZmt4lsPeyH7lwFl8gw1A8w3nUJx/sz4op7NtLg70uL/AHyDVCCtrKjY1UfuXFNerLAHSt09AuKj/qz+qn866PDvZ/xM74ePFrlsD8SflUK7ntjVcXG4qF8aub2XWMuBVj9t2PpC/ipqN8I9k5Z1fGXRlGvVWZ18GuEAx5AHxqzcLhktotu2oVFACqNAAOVWAWWq8EABZ6UpVlxSlKURKUpREpSlESlKURKUpREpSlESlKURKUpREpSlESlKURKUpREpSlESlKURKUpREpSlESlKURKUpREpSlESlKURKUpREpSlESlKURKUpREpSlESlKURKUpREpSlESlKURKUpREpSlESlKURKUpREpSlESlKURKUpREpSlESlKURKUpREpSlESlKURKUpREpSlESlKURKUpREpSlESlKURKUpREpSlESlKURKUpREpSlESlKURKUpREpSlESlKURKUpREpSlESlKURKUpREpSlESlKURf//Z;" vertex="1" parent="ZejM4U1-Lfs7wTc2lEzZ-43">
          <mxGeometry x="507.5" y="216" width="90" height="90" as="geometry" />
        </mxCell>
        <mxCell id="ZejM4U1-Lfs7wTc2lEzZ-81" value="" style="shape=image;verticalLabelPosition=bottom;labelBackgroundColor=default;verticalAlign=top;aspect=fixed;imageAspect=0;image=data:image/jpeg,/9j/4AAQSkZJRgABAQAAAQABAAD/2wCEAAkGBxMSEhUUExMVFhUWFx0ZGBgYGR8fHRsaIB0XIBsbHR8hIighGx8lGx0dIjEhJSktLi4uGB8zODMtNygtLisBCgoKDg0OGxAQGzIlICYvLi8tLS8tLy43Ly0tMi0vLy8tLy0vLS0tLS8vLS8tLi0vLS0tLS0tLS8vLS0tLS0tLf/AABEIAOEA4QMBIgACEQEDEQH/xAAcAAACAgMBAQAAAAAAAAAAAAAABQQGAgMHAQj/xABMEAACAQIEAwUEBwYEAgYLAAABAhEAAwQSITEFQVEGEyJhcTKBkaEHFCNCUsHRM2JyseHwJILS8RaSFVNzg7LTFzREVGOToqOzwsP/xAAaAQACAwEBAAAAAAAAAAAAAAAABAIDBQEG/8QAOBEAAQMCAwUIAQQABQUAAAAAAQACEQMhBDFBElFhcfAFIoGRobHB0TITFELhBhVSYnIjU5Ki8f/aAAwDAQACEQMRAD8A7jRRRQhFFFFCEUUUUIRRRRQhFFFFCEUUUUIRRRRQhFFFFCEUUUUIRRRRQhFFFFCEUUUUIRRRRQhFFFFCEUUUUIRRRUDi110t5kgGRM9Dp8ZiovcGNLjougSYU+iqrc4vfG+b3IKwHF7p++//ACoPypD/ADShuPkPtMDCv4K20VVl4vcPN/8A6f8ATWaY66d2f4j8lrn+a0dx8h9o/avVmoqsnGXZ0LR1zf0pV2q4hjLeHL2bhtkMsuQCACY+8pGpI1O1WUMeytUbTaDJIHnv4KFWiabC8mwEq90VxG52u4iphsS+nRLf5LFYr2zxvPE3I/gWf/DW1+xqRmPX6WV/mNKYg+n2u4UVxTD9rOJEkrfdhtqiED35YmttvtVxHMA+NVZ5ZbHWOkio/tHjMjz/AKVgxjDk13kPtdmorjmK7VcRElcVbIAnwi0dIn8O/wCdQ/8Aj7Hj/wBoJP8A2Vv/AE139m85Eev0ufvqYzBHOPtdvoriVrtzxA6nEMP+7sgfMTTLh/0oXLS5bqrfY6hywt6aDLlW2RuDrpvUKmGfTElTpYplQw1dbormlv6V1In6uo6jvtfd9nrW5fpUQ7WB/wDNH+ml0yui0VQB9KuFj9ld9xT82FZWfpUwZ3t3gf8Auz//AErsIV9oqkL9KGCPK7/9v/zKZ8H7ZYXEsVRipAmXKgHbQQxk61w2QrJRWm1iEb2XVvQg1uoQiiiihCKKKKEIooooQitGJsh0ZDswIrfRQROaFUCXQFD7SmD5+Y8iK0jEvOoB+VT+0V51vplUZcniJ56mAOf+9R+IC1ZUXMVfSwpMKGIzHyA5t5AE/wAq807B1HVnU6V49N3VzwWmKzQwOfqtS4k/hFY4vjdqyPtXRJ2BYCYiY5ncbDmKSdqu2OEwFzufq+Iv3sgcCQigHYMdDPUZTFVfAcaXFvisTisI1zusM3c27Y+zsL4mdm1AUkZTnOpymBsKcpdmVB+bwDoM+vFc/Vlu3sHZGZ4cOKuFz6QsOvsmR1H9l/lWm/2xs4m29pntZbilSGdgdemdFWfU0vPZSxh+G2jjItYi5cUnKA1xmMhLFsnRSdJiR7U6a17gOB4OzjbHDblnvr1yyXvX87DK2VyAqg6Dwnz8S6mnG4VwAMnzIjygeim+pgu80BxiRpBGp04+nhWXtnLlkE2vCcpnL5aSInbcU5bhVm13gK3r/dhGuMptoFVwCpE52eZEbe4UoucEdLt/Jc8Nq4bZg6nKzAaCBrlBM8/Sm2OuOr3wXbuVTCjEKsFygRAxUxoVbwkHmwnY1t4/FVWUmOYYJziP9M9cJWF2J2Zha2LqMqt22tiJ2v8AuBkWIuWnuzbagG0qVa4Zh01YvdAN1VR7eVQ6KCM5FwMRqNo2Pv8AGw9l0tXO5wZzOV171BbYBGK3CGGwI1M1jxPE5Llz2Bba9evI6ujFluoFtBbYYNMQTMADciti9orBt4NTmYYYnMrWxLjSNM5UaTuTqAfKk9rF1jttLt1rbtBE671pbPZWEApuDbiTtEHR8Zgxk21gNWxKm4jB2/quMuXMPYL2L2QKiZQPEoYTbKM2+knkKX4nhWHlFKFWdc+ew/eWVUtlz+LxnxaEFp8uVRMTxNLq3x3t+2L7s5XR0zMwJkQm0AAydtt6nPxlmVIuWPs2BUi2bbWvHmJQAHOrJKlNSTrB5h/e0R/IR4jPy3aeK409kYqA4MJJP+0xsgCIA1k2Pg78TUMcpBKaTMGdp/pSjGcSt24GTU6Lrvyk9POpeKvZ77CCFLMQD01Kz5jTnVNxWIN66Co1JGUfyHl6+tPY2oXbPV+isPs6iKe1f/50PRdO4H2L762t+9jraK2rJbXMV6qSYysPMGPOn1+7wayuQIHbqXbMT8f5VQuEcJxF5hYUkqWJCDQHqWPSOvSui8M+jy0ijO5LdEAAHvIJPrA9KwcVi6WGANepszkNfISfGI4rc2WlxFMSN5VUx+LslZTCqg5lbhJPnBP60uweJwt1lGWZgdNSzjl/DV24z2QZVJsnNH3W39x2J8oH5VzbimGZW7xOXtDnpz9R+dXUcRTxFMuoOn45zceKKYDKo/VFkwxGPw6x3dlZMk5iTA5b7zz9Pi07Nd7cQ3XbKW0UAADKOYHIEn5VS72ITeRt5/MV07C8GZcK721S4LNsg3HJ7suo/ZoFZTcMgqz51RWMeMhoWrlxYQTbWeus9Frg4ei4OgTpET4eErYbFxokqfVV/SpNvDXAPDlnqIH8opfaukX79h7dpXsAMzJ3pS0CqEhgr95eOZ1VYKTlunZQtS7tvFdy8N3N0LiO77q0GQm0SmZ7tzO6F3BKBWUgEbkSc2o6jSI23RMGwcc/DzGfC4XTj2uHdB8Y+ypitiwxQXT3gAYoLpDBToGKh8wBPMiKztcZ4ghyi4W30DqxkbiGBOlLXwi28QhttbtFD9UbvCyribtxQzquXxhjcKk3SS2a2OmpxLENYuWs7szFXusos21spaGYstq4FF0urZE1fxM4LCCRUqGJpVC1rXuDjp8yLREE3ls3GaWfinfyY0jl17XTq12ox0wRPrk/00+7Mceu4i8UcoQqFmy6wZAAJGnX4Gua3cS3tE6xM/nXSPo44SbOG7xx9pfhvRBORfmW/wA9OYR9So8XMaq7tCjRpUj3RJsICt9FFFaqwUUUUUIVd46GF624UsFAYgbmGGgnTN0mB5iqHiLOH4lxe1cs4pmCFGuW7iMgt90w+zAeCXZz7OXTxknQKejcXuRctjqlw+8ZI/ma5F9G2AZ+JpcdDmtd47SNQSrLJ9S+nWlGP2ar2xnB8SAPKBHh4J6lQL6Tqm1GyN0yJPleL7yOYud3D8OxGNxbm3cuYjDhLl1nJCKVHhRRMMPDroRqdaRJ2kbF8Hx+Lu21R2tphmjQOYEnyBN8gCdgKUYPtBat4fi9x7qi9i7l1LKz4iJuqGA/CA++2kUs7P8AajGYWxcw+GRGVpcsVJa2QqgsNYgQu4MHrNNFwaROpN+XW5QZh3VGEtk7Ozw/ISRfK/r6WvtFae1geD3spNrDm1iLzFhIb7MganMzMzkaTrM1sxvaDA2Mbe4kMXavFrASzYQ+PPGub8Agc/xHmADzy4HyJav4p2tIYFrMXywDquuUAnwjWdTsKl8G7L3MSwYr3aHXNHib+EHYfvH51VUxFNlzl5a+qab2e7YLnODeQmQd2XHwPFOezRv4gu4tMTdVc2VTlLwubXYFmljP4jVyw/ZTHvdY3MRkUqZM51JIII7vRdtyR8abdj8EthRbQAKuwHL+zVmx1hnEA6cx1ppuONSk1zWi4GYB0G/JYT8CxtV3eMSdSNTuN/NUJexmHb9viLj3SwzOo8MaKF1BOwAB220inH/CWAtuD3fKAjOcpPMgEyTHu8qk8Uw1xELWQA6jMAyElo1KiG3O23PnS9lxT3C3fBLRAIQWkDz+8xBAjaAPfS7cfWDSaro3Ra24KwYKgT3GTvJv6m/iond4dnGHxGGC6AIfZLASfCV8UADrz11p+nZfBOQ4sL4RECQvvWYJ86rNjh1+3eDF/rUsZ7wi28QYUOoIygxChVE+pNX/AAE92sp3ZjVJnKek86qwlV4kMeS3mZ+gp1KTCZe0bW+BlouQdtuzljDi7ctowKI7rLE+yjHL6euvnXJOy1jNdn8KyPUwP5TXdPpFuDJeJ2Fq7/8AjeuIdnHCXys+0unug/ymnC9zvyMrgpsZ+IhdV7E2CcTaSStvu3v3yCQSgzKqyNQoYK2h1za7CnC276pcYYq93gtLd7pgLiKbp+xsZnJbNMSfPSlvZO4pRx3V1zew/clrRQFBmuFxLkCSrWyPf0pziXxRuqltcqFVNy7ft2SQ1rW2wyGGfSAWIExGXesnEftH1dirsl247M8LG62aBIa3ZgCAb6wSToc7jKbDxk2zfN11a/aZRfGHBNqMz92XbZ4GU6AfeIAkTVD445uM5dnZ0uZGNxVVxKjwFVZhClW5/eqw9p+KP9kqYZHjPdu+BineXGBkNbK+NQNWDGC5EnWq5xPEsbha/q7ublwDYMyqAukSFyjSdMxEkgk2YWhh6dQii0A6x8+K5iQRh9p8XiMtDnlNxc5acm8s4gmS46jZWMDynT5V1Pt3xS5g14fgkJW3ktvecad5lZRl6BRBOXaCo2FUTiWNw9xnkK05suWzkM7LDhzOw1YGZOldLPaO4qJbbuLjWwBbu3rN1ri8gcqI1tnj7wuLPMLUe0WvLqbmtDoJMEgaRIJ3Eza/skcO0kOidMgT7b0y49x8i5dtwM6MyXYfustphae27XRqjFzCgSWloG5pC/Eibdu3OGJtH7Jv8YQvilVKd19sVO1xidfFE6HZhzaKZr7lYfPL6szsyq124F8OfKWhRsMqIZDFvLPEYYFLRaANxlWQZmWi5r6R+eXTpUqLQwy4tiSS8AnO0G4kn1BIWiyiXTnO4NB87G/CIWzE8czMpyYQPbuNcRicRea1dckuwAshGYnUKzCCBJHKPc4sSVUlBGeFS21tFLmblxs5LNcYArAGUZ2JYmK8LtcCGPCgJIR+8JIJiABmMA66boKT4jjCWiV+2zcwbYB9+aD/ALVfRYyZptuJ1c6OVzv9d91fTwoEF51ytp5WnjomHEWBWQ2kGY19K+g7ew9BXzLY4ib122gtH7R1tydPaYDWJnevp2tLB0jTBnh8pTtV4c5vj6x9IooopxZSKKKKEJJx+yWKFfaXNHnMSKrPExj8rWsPdtIrDUtbPervoGzgRrocsj4Q37W4ju7lo5wpKtEkCYKzvvuPlWi1x9SoFwW2jnIH85rIxFcU65IJaRAykHI7j7JynS2qYBEjnB3dZLl3/o/xSwMto5RoZb+WWp1rsRiWCi7cCqugA1AEyQC0ak/umrpjO1eDt+1csqenegn/AJRrVexv0jWicmFsvec7BEKg/EFzprovKqBWrP8AxM8h9gBagxNYiwAjgLacYspPDex1ixDMMzD7z6n3ch6gD1pbxrteFb6vgF768xjMozKD5R+0b00HMmIpXxK3jcULhxdw2LSKWa0gBJA7qZBdZhbqkh25HwyIqU1u1gg3doLShVvWrxcZ7jKneIhVkl1L92CbWUAtPWLKeCLjt1jPDr6jnkqHVpMztHn8/Wasf0ccVW3Nq/dAuiXZ2dSGlmJhwxUwCNjtHQx0rC4hLih7bKynZlMg1873sfbbEh7SlLTHwqQoyyzECF8IGsQOQFTbtxgSoZgM0wCQJ6x18/KtEVdmBC8viMe5lV4c3Jzhu1PNdwxr3QTHs+X5mk+KugDWR/L41XcDdx82rn1tiWQEKyeAgiSCAdTsA0AnUz12JxjHBrlt3s3GbJBe2fCXzQoCDaAT4p5bzFQrUm1BqPX0TVPGbObD6fBPspd3F65RqTt61eS3h16VzpeIYpWASxhu+SC7hNWDTG4UawZKnny2qNxTt1i7dxwyW1CAgpBIB65pBJn3fzqOHYKEyZmNNylXx9MxII8Oty3dq1V3KsAVYMCDsRlMz5VzLt12dSwq4rDAJkK5lHs66BgOWuhA6+tM8L2jxGIvKGYEEsfZA0g6Dy+fnVobhNvFYUWrshGg6GCYaV1g5RIHnXK9ZzKrSMtU/gjTxGHeY1i++J+fFUfs12hKw9poOmZZ09GHMdD7xBq+2O2ttl8YZT6SPjv8qoVzsucNe7/C+LJmm0zamVYeFoOoJB8QOo3qLY7UIZz2bFtgSr23Zwd1MghDAkERv1J59q4fC44AvbMcwR5f2Fx7K2FdB18QVc+Kdp1P7NdfxMAI8wJM+/4Gue9o+LwCoMu255idyfM/1rLiPaZIuIthGYrC3EutlUlRqAVUkgydfyqt4PBNdPlOrH+9TTOHw9KgzYpCAqKlV9Qy4ysuGYfM0nYfCf6b12/FcFAt3GS8hu2kLvbYgBlH37bjR1PLQdDBrk14LbAUDQaDzNXXi/HPrD5FQW7RUQihUU3SApYZY1MDedNOlQxbWuA2hKf7MFUud+mYFptO+PnO3HQrmxF25JjLB0ZbWaPexgesCn2F7O2r5e3ezJfKZgpAABKqwbK0S0EeAnk2pImsE422DTIbA+ssYS83iCKBui6gNzzees6CtOH4ticXbTC3LkILgJd4LKPxZtyo8Ricx223UpgBhIMTqI9+m6QtSsx9Yxk0HOZ3Xi4I3CQSciIMqeLdnGwpQuERnkA2p+7lkySTqeXlr0ouLiXt/aDNbTUMRDeWm0elN+O8CvYdWe07fVywyXe5hiDl1ZjooLEhZGukb0oNtVtG7iLzDT7NXbVvPL0ny19KHuc494a2tJ8LAeUjmr8PsspiDMZk28xJuMjN1n2bH+OwYH/vNk/C4lfSdfN3YM95xHCH/wCKp+AJ/KvpGnaIgFY/a7g6q0jd8ooooq5ZKKj/AFpPxD41IqvXrUMwkrl0AHyMekVndo412EY14bIJjlru58SYAF7TY0OMKmfS7avYprFjD4Z7uSXa6B4RmBGQH3Zj6LXObfYnGkgHCXFBIBbLMCdTG5jeK7qg/fJ6ma3op/EfjtWC7tmq90lo5CT83OnEk6NLlo0qxpM2GjzlcyXsnbUNGEOabmWEuEZWW53ch93VlSdl+1MbaYY7gV/vk7rC3DaC4gEKotgC93qwk8lVwAMv3dta6nkEb6V61mfvH4mpt7ZxBP4Ni2R+SdYjKM3WETWHnUzYi8nMRz13rl16zjURIV7QTKttEtXLjhYtrGYoVWMivITdZBkxVL4xetHwWrbgggFrzeMwCCpBMKBpoI2OnT6A+rx99o5CuP8Abjhq2sbdFxMyOO8ttrJzTIkbw2b5U3hO0jiKhpvAFrQZ566i4sDAkxICdwDW1KsHmOtbZTOqSYW8gUKUJEQT4RJ66t8PdUw4kOSQTPPVf150p7q1+Fh8/nW7D2bDfeA91aKk7/D2DeS5wJJM/kc/CE1wOPRXUljlVgSAy6gHUe10ke803w3aLCorK63MxJki4BpmYqGi4M0Aj0IpBYwuH/FPvA/OplvA4Y7yfPMK6CQhvYGBZk0+ZU/FdqbZcG1evW1ygGWVpYc5NyY2jpSzE8StPmLvObctl1n/ADVsu4DBxsSf4v0pZibGGA8Foz1LGg31UHf4fwjzk7/yWrCsttiy3FI2WXUQNZG/MGJrqAum7YV7YMMOnqCI56g61ypsRlUC2iqxMSoluUAeZNdo4Nw57Ni3bDqSiKCY1kAZj7zJpXFvgA6/CkcFRwIDaQNzNzOnyqt9QbPLK0nnH6aVRe0fZ4viHbuLzSBLBWgmAOWldqu4a4eS/DWo74S9oVQHXWQNfedKXoYh1N+0BKrxNT9ensut0ftcStdk7o1GEvkdTacj5iKL2Dvpp9Wvz/2Tx/4a7scO5+9Hll2/kKyXh7Hnr/Cv6zTwx9U5NHn/AGVnHDs3lfO+JwmILA/V751ExafQTrGldSs/R7aYDNi9DB0EHqPvaGaug4Qf+sE/wifnUW40XVtDWfaJA0HOIAjTnS2IxVaoR/HlB9wfjim8O51FrhTdnnYacwk+F7CLaj/GO4J2dQZBG2le/wDA6wf8QFBbN4bMRoBEZtiB8zVtXJmgDl0qXbUbwKzXV6oq7JIgESdnTjb3Vn7qqBO0b8vq3hCqnGOz966qg4zwrACmzKGNswzeLloTGg0quXfo5Z2a62LR2O7FDPoBm0HkK6gGQnxRNasZiLawoCl20Uc/X0rU23fmXz5H41VVPFVWANZaP9rfr1VH7K9jVw+KtYg3xcyEkIEYSSrKNZO0ztyrqGHvZhMRqRSW9eFq2ToAo3HlvTThloraUHQxJHQsSSPiacwheTDj7JfFVnVXbTjfwy8IUyiiinkoilHF8qwxIGbw+/cfnTek3aOMgkTrp60j2k1pwr9rQTuy1nSN6nT/ACCr3F+Ii1lAElsxGk6KATzGuoA/pUfhnaFGXxgq5JhMvijUamSu6t97l10qD2hM3LGseC7ty8KfCq8l0LIDyQzWlky5cPigAR7RY5l9cwry9PCsfSEi5z83N5gQAIGQtaSVJ9VzXnrcfO5+ldm7T2RH7SSSFGXoHJM7bI2+unpW692hsgGMzBZzQpER/FE6zttBmqRdxKXSGtkELmZhsVzWsVOh19po08+hra2MRSdcyszMcni+zZnGbwzp41PXWpuwTZ2SDO48dMtYHoPxsuCu4ibQrxa4taYgZiGYxBU6GY3iPnVd+kkWjh8zRmtuMvWGMMPSYP8AlHSvezTlb75hMzleNTbuZrioTyKNmUrylTWH0gkdyxjU5fdrVVFjaeKYG7xef9R877syc4DNlaGAeTWYcu8B69TwXOLiLAiotjCWu/XvTcVXUrmtxmV4Jt6N4Wk+GDHtjURNa+L3CtliDBC6Grbxbg2FuYjGYHD27tu9h7Pe27hvF1uQqMVZW9j2oBDbia9VSY43BW52ni6VMCk8GTcEaX5yP7VWt4tfu3FvJ+NAQwH79o+JfUZl86mWr6sJXVfKsz9HFu9iMmGxuZkxPc35tMvdPF0llJP2gm040jUCpuC7I4QYR8WmLvR3D3VcW/bNu8bZZkLaT4RlmZ8U/dqz9ud6z8P205sCq2RvGfXA+aWFjyqVhgrmGptc7KMjKj4u2GFxbd0tZdVSSFLK5aLgDsFkhATMHQws4pgmw+JuWiXOQKZdMhMzrAZgV6MDrr0ql1NwEla9HH4avUFNkyeBHH2U3sxg7RxtrO0KhLgEEyy+yPjr/lrqqoW9hWYHmFMfHYVzH6PPFxKyp1Vhckelu4f51f8AhHFMXiMc6XFezatIzd2BGY5stvM0SQQGOhAOXmKr/ZNr957oA3f39RxWN2nUqU61r92fUjx8JPgJTK+DZXNcZbY/fYT6ACZPlVP4jxnGm3buLlW3fuFLUAd4wk5ZBJC5gORqNc7FZLne8QvBFuNEhi5DsSQpLCAoEknUR0phguHrYxHDEC94biM7C47QjFVYOiGVTKFcAADVgSSRTTMBQDYAOtzvG4TF9/KySZX/AEnh5LXnVsSIiTe1xGWW4lLscMfbvCz4neQBGZlkjNlzNpIGp5CmmETFi5bt3bJU3ZCXFuysxJkZnXQAmAFJjQ8xuucYuMOKXS89wrWrIgeBcpLHTeWAM/u1qw1m6MJgbVplGJzNiVVtJEvMdJF0GOmarHYSllHhAiwvn183DH1HMAexgyEwQe8CWusYgQCRBkG4M2bYfjloN3bXhcGozZSpV1JVhBk6Hz1B+Orh+Ml3dbZYnwBpEabwN9+sTA9aS9qMNabE3e60ICXLhU6ZznDD1gLPWRzr3sNxQXe9UD9m4lurHNPwgD41kdo/9MH9OxBbneA7Z3/8pEzmQl6ILmbWdpOmse9jvzVlGMFpibjDOELlQCctsbuwEkLPM6ab17b47Zf2cTaJ6G4s/A60jwts97jbjhyty7bw5gEkWzl7zbUDuoOlZ3L9osVz2TcHflLeQyCVy2FACSUVCxmNzpNU1ezX1Q1zKrm/Om8H1yTbadPcSYHId0OOhsJ2STrnnZzf4vaC5rroFmA8/e6ac4105Vpu8PAeSWJmZnX471XeN37Vu3fsB7aNbtpbQpBuOyIA6skaqxdjmGxSTyFP8Q9xUtgCSFAY6EyAORYbmdZ0pXHYY06bTtXm5y9teOa49gpAObkZ8oBB9d/gNS8ve3rdpnbKXXMDsQNQPOTG9Xmuf4DEXDiEJGmZRMAH2h0Y/lXQK1uxiTRcSZM5+AWdiD3giiiitdLqv8e7UJhiVNu7cYb5AIGk6knT4Gqxh+2Bxl5bfcqiiWHizEkARyA57U74rZD4m4DOpQCI3KGN+UgT5Cl//QwDd5bAzQNTv4g2kjf2efWs/FCpVpvY3UEJprGADeo3FsEtyGjM9vMyDMQGYjRW6gkAGfOkGE46S7FUfMGC3DkE5vw5g4DEdKecbW8bbIn2dwwAx2AMZmHnlMj3UixfDDbtp3TqvdTlQqxBBkENHXfN11rFw+FLWFtccAJ8eIiSI/kTLicguOa+ZaP70EcYz4WWGPxwLqbllywJCs1s5vYfMJF0SMubToJ3rPEXybZPc3MhEsArBY5kBLgI0/l76xvnEXUAbLbmQGzZyORMZVA001kwSNJmt2OxyKvdMWFsp3febQxHtTy5a9atZSY0gXgRYO9osPDVWNpF0n4HjPWiYcDsBVFy0WIdZDE3LpIJ9kEtCwdCBMldTpWjti7HDPm/EmuUqdTqCDO3UHXXTSvOBE4e+tsNmt4hCw6C8gHeRGwZfF6qYrDt7c/w7D0j/mGtK7BZi2A3ktIOsW1jwI/H+Lcyp4K1Zg3OE85Hvnvvdc94rgs6lJgHnTXiXaDE31cF7dtrkd49mytt3iIDvqxAgc+VLs8gVrmt8OcBAK9bVwtCs4PqNkjfPtMLfd7Q8RLG5Yjv1vIzC1aX7RnW4i3CoGrSXB5EuDvXtnG4nB2/qjOt26LTW/q4Cm3aR3zst54OZs+uUHTaYMCFaxOIs3WfDXDba5bNt3G4QlSI6GV35Sa9w1lbawvqSd2PMsetSc9xbn1u5T1GeZS7LacQSRDRkfoHUcRAjfm4t4jGi2i/ZsJVmJws99BJt94c32iqW8K+yNIG1Z4mzdvXA92S5RUjuxaVLajwKiA+yDm1862YLiBaVjKsyILaDXSJjSRsB7I561txGLAkhhJjcnYADTcxMmuPf3dlpnhEIw9AsrhxpBpvfaLrnmXXuZXli2tp5HtLacyDBDEBQQRqCC0z5VZeyvEbq4LH3LlwlQBGgBzlSCxYak5RbA9POqr2XTvMYA2V1ZXUjkfCTB5xpVk45ejCthsPhb1tWcNcLQxJBGxViY0Gumw01MSwtTYMOdAzIJ618ct6W7RFN7v0tmXuLYfuGRvp7XJOQUXtJb7rhmBsb5810zvqWeT5nOamcZ7VYb6zh8Th89xra92yN4Qq5XBgETnlhrqvhjnVTZL7t9ot24BChSraKNAoMeERp5VJw/Cr7+xbCDqd/LaW0MdNqsdjGiTM21Prnv46KX+W0w0fqODTtONiPxdAjfkMgCLnmNl/tBeW++Isf4Zbo1UKIOrFiwYHMczHxQDy20rLA4O/jrou32LD8RGUsJmB0Gu+g6c6acP7LKDnvNmO/i25mY1n1JPpUfjHaVVBtYU+TXeQ/h6nz2HLyUfjqtQltLzyj56yJuuNo0SQzDslwEbRnK82NtYnZFrRswBr7UY9LCHDWPbPtsPuDkB5xsOW+9Y/Ra2UYiNsyf8A71VsVoCdz1PM+fWrP9Flrw4gnm66+gP61RiKBdh3sBuYudTIPwrMTSZh6Rpi9r+Ysrxc4cjO10ZszRmUMygkADMACBmgAa9BUQ4RULFbZzMVJJBYkqZU+KZg6xqDA3gVsxTuohDrI6TE6xIImOtRv+kcQsg93sIneYMkwRzjkPzrLp1Xl3eLg4WgE8srjrVZwqPFsxz0mfcea18L7PKt7v7gOaSwzkkliZzGTprr1n5t79+TSq3xO4Qc8eUfr/TlWtsYx2gV2ph69UgZAak3J37/AEU3vqVXbT90DgNym43Gdwi3QAWW4pAPPXanvBe2S3mVHsvbZiADIKyfWD8jVewGAuX2HtBTMMQSJAJyjlOm1ZcPw5t4q0jRmFxZgzBkaT1Fa+Cpvw7Nkan6CWfTY6ZzXSqKKK2EgqtjwPrN2S4EKPDH4CTmBEMIB0qDdu3kuQHLZmgSNMx3EHQHxax13pji7yJiL5uAkQm38MdR+KPfSy/ikuN4UK5dU8RJJlPnAJHUxvSD433k+5TjJOloHsFsuY0MhDgSVJB1MyuUQfcN9o35V7b4cHCx4GhQddicvLnKEuIPIjlWTW8wykruDlbl4ZA0IKgHN1jON4rEm6FGoNsahWBGni0110A5kwD0mgifyEhdn/SYSjHcGh1c65AYAJy7jVl0mGI+NLGS8boW4ouWXBzHTQ6nUHloNuZqyYjFhkyAFJKkiZBB56iR93SYqbisFaZmUArDhEK7D2R4pOsuW210NLuw7XGWqwPgd4KklAmIw9tRAF9iADOgtOW9NCvxFau21wm05I3YAeQmrK3Dip73KpKDRgJ8LBTM8pGWQYOopZ2lwTX7D2wIaR6EggxNJ1aFQV6bosIH/sTMeNs4ub6Sw/drB5NtoHyj6XMrNzSpGHVCDmJnoIHLckz8IrTj8DcsmLiEdCdj6HY+6ld92Rs6n++h8q0C3aFivTPqHYlvorXgbKEkm0I2BYkjloeU761I4hctIkBEGYR4VM+pga76ab1K4Q1u7YS4hgZYg7g65lPvI2iYFKuGMt+5cZDKo2RQRy66T7Rn+sVnztOJdPdSIrB5mfdZLhyy+BlCxOpYH3+HT1qD37KNzMbVK49xUL9jb0jW5HXkvu/Sl+Fw1y5qomZ+WX/UPjTdHaLZOuSap1u6S+AOKb9gsWfr1stqCH0/yPXVHu2ztmHlv+tcPsXyl1SGKkH7pIOumhGuxNObN13uBXv3spMEi623XVqlVY5xERHEJTEYI1n7bTED2k8RrlmumYm/ZQSzADqwUD4mkHEO2FlNLYN1uQXaf4jp8Aar69nlLqxPeKSJBJJHNhmMT+GR1mnmGwqW4KKqkHcDUxcDDXfYAak/LWAoNH5Hy6JSf6VCnBJLuAtHOb+nik2OOMxSsz+C0AWKAxoBcIzD2m1QrqImNqz4jwHuwckuUY6jTMsKNpMEOLixuY8qc2LQQALIERuTp9poZJn9o2/UdBWX+/x1Pzq0FgENCtGMcx0U4DRoBE89Z3XsbxZVJuCXrn3Qg/eP5CTT/s5w84VGGYMWbMdIA0AjfX1qfRUSZEKqtXdVsYA4LN77Hcmm3D+AtdRXLRmcCI1ykkZz02MdaTVNPF72QJ3hyjLHKMvsxG39K6zZbmEs4OjupnawVlMRYIByvJZbkGILAE6AQYmpOG43h8xa4s5QFWUUsw8UnQQu40kaDnVJ4zxvI695nd35k8pjUn9KnVMVY/EIfh3bIc/Ii3ym7cbjuylvK6JkBLErEESF0gmZmeVasFimu4q07wWNxJIAEwR050lfGWwVBcCZAnYkGCJ2mam9nL+fEWyB4BcUBvxa6keXIHnrUQ8kgHeF11HZaTEW+/mfI7l1aiiitRZKqHFrqLibhdc2igDlOUbn8v0rUiYctAEzI3IjzjnE6eS1t4wR9ZcEjULE7bLqRz0n41FvYZSNBB0gidPDMEakncacx5wEDO0bA3ToiBmLD2Xt7AqZfMMsEwAANjER1IPy6mI+EcMyJBCkwYO+aJ15bAUYbCzcVWMBjEgjpoN+eg161J+pQPZLCNCqgkTnGqnWQQ3hGxG+wFYEmQOrKcwImV5icG8KMrER4V++oPigjeJJG3KdJgl3GGZK+bqdCG5sI1AO+kbweRONsMCyK6qpUkFjplIA3I5qZ01025VJu4u1cbxGTI8UEdNFO4A1OsbnTYidjkYUZ4StmFa01tmLrOVwQwgyVhQCdCYAiOh66R1tPAOjAidYXQyJGsEzIkjNr51iOHF1Lm6MocoJJI9Z6HrHSt19mtL4rfMDMpEGJiTBIO2h6fEvHeEdeK5aYBnrwUTFYBGBzLlB0ysJU6dfZMmOfPbSqtxnsNZcEoDbJ5qNNp1QwQN9oHhPSrsvEbb8spYQc0RH2egPP2DvG/uqNirADsqtC5XPWAASQJ2JUDn+lcLRm1W0q1SmbGOus1yS/wBn8dhUuW7cPaf2iglhyOntAkaGJpDg8dcw7sLJ8TLlYRMecdRJ36mu+lA/iyhp1MaMXOURPmXUwdvEOVVzi3DLTHM9tGYRDMqkxHXWR76iQBO0Jn1TDMTIIIXJ8Nh7rmFt3GJOpysdTzJ/WrdwbhV1UGYd2ZM+I+UaKYOoG9WVRGg0FbLNlnOVRJNcdV2QXZBW1MS57dkquJ2Ts73Cz+Q8I+WvzpzYwltfZVR5xr8d6k37LI2VhBrCqw8PaCDIKrdVe7Mr2vKKK6q0UUVEx3Ebdn2215KNT8OXqaFJrXPOy0SVLopA3ahNYRpjSY389dKmcJ4mblprj5QAx25AKD7zrQrn4Wsxu05sf2p2IxKW1zOwUef5dT5ClbdpbMxDkdYH6zS2zafGXCzEqi/IcgOWvX/amp7PWCNiPOd/y+AoTP6OHonZrEl2oGn2eua3tFdV3sMpkEAg/wCapnHuKFfsbUl20JG4nkP3j8qg9qxla1GkJpHKDpWzsyLRYuzA3STAPnvE8z5be+hMBjBh2VnCQ0GBxJtPAa71NawUs27TLmncDcnfKJ0A3luQGm9Nex/hxCKQy5bieEkHKCdMp5qenKDUXiVw2ytwQQJBBYDeNQTpyqZ2RvB8QrSM5upIAMBfugTyiTPMk0M/IJCo4uoOcdZJ/wCRO6Yy1icgDAhdeooorXXnlWsRZVsVdDxl+zBmOYHUaHzFKr9trYBRvCROWZjUjy56SIMyPM2LiPCM7G5bco5ieatHIj/ceVJsfcuIuS7bjQBWGoMEGJ6epka9aSqtiZ435pum6YjhZabjssMySASGEg6kENMSQxB3I0yipFviIaQrZTpGfcwI9oARJJJ31Y159cQAHMR/DBLHMxzETIOo3jXaYmvXQXVAkuJEEMdJEGSVJGv4hLaRsZ5fQ9cwukDUdeNlG4gc1wBQSqgMQWABli07xs8A+la8ThlgkGCI3AUNOqxsF8IafQDetOGXVvFpEa7Fep18IGnWNOlSExxWBk0UTqZJ8QYksBBB2mNm86rkG51VlxEKVwu+FHdPodSAToc2WJjmIOh/F7qYkASDtJZgdfCAsk+oGo+VJ0e2VLFIiAJGhmIEjyD6x57ii1iLgkI2ZAdAylgBJAOxiek1Y18AKpzJJXr4IC5cVUzEOEtqSY1zEk6g6AdedbcRhkJGV8jKWWJkLlbfUyBrMAHfyJrHDi8GNwq0ls2YKTDCRqu+UhiD/SKwvcSUEgKHnNmbxLOYsSAAZA8RGszA00qPdAvbrhdT702v1xsh7bosrcUEAsFVSDEqGJBA10GkbA8qTY64WEnfT5CBt5Cn9q+pEqcoIjxEJJGePEBkIlpI0mDodqS8ZnM0mTm6AcvLTbpUagtbJSpm8FJsXfyLMgSYk7DQknTUwoJjnEVDtcSZCSuLVWhh4UDg6EiNGMSBOnTXXSZjbKMv2kZR4pJiInWeXrSa5x+za8NtS3nOh95k/EVSWtcC1zQQdCtPDM2xDGlx1yjzcCPRN7IZndzcdswAzMNTBbZdIEFeW5PqZU0i4b2gN24ENojNzBmPMyBpSbi2KuG8yh20YgAE/iIgD00oAAEAQrG4KrUqlru6YnfbLT+lYcbx2zbMSWI3C8vedPhXmA47butlhlY7Zog+QI5+tRuH9nUCg3ZZjyBgDy01NKuO4AWLilCQG131n1+FdVtKhhKrv0mE7W/TqLwrLxnH9zbzD2joo8+voBrSThPBzf8AtbzNBMjqfMnkP723a3+AX8c1vuh4QoJPRm3HIbAbkUyW1kAUCMukdI0rsFLtrijR2aZ75/KMwNAkPFuAWxbJtKQy8gfa6jWdfSondPawdwMpBZ9j6L+kVd+DLN+2MgfxeydtjqfTf3Vt7fXBfV8OgUZDof3xGnkJ0ruzLdqVynj37TadS4kOJJyAPWfgqx2YUDDiNyST66D+QFM715UUsxCqNyapWEx13DFlAjXUMOfXkalpbxGLIzaIOcQB7uZ/vSopqvgT+qaj3AMJmed7byt3aqDctdCPlNecR7NsJNkyOh3Hodj7499M8RwNHNvxEBFgAbnWZn+lNqFV+9NJlMUjlMgjjboG0pD3V1rdsFGdsjgzpDEgA+LoJ86e9lbDriLZfLJa2oAnQA9TudelSMHgLt39mjN5gafE6D41ZOD9l7iOly46rlYNlGpMcidAPnU6dNxIICRr4oFpaYEz6knfa6uFFFFaixUVg6giCAQdwazoriEixfZ9Sc1o5GGoBErPodv5eVJsRh2tuDeDpEAMvsxroI20PwG3S7Vg6giCAQdwapdRacrdblc2s4Z9eKomGtDLIAJIIgnnI8I5zEEGdyBFSUxILMJIeddeebxR92IJ56mIjm4xnZ9Sc1lu7YGQN1n8v70pHjLD2xkuqyjkQZUkAxvP89OlLOa6mOugrw5tTrqV5i8MTJ9kLM6abuASNwxynqNpOtSuG2fCbZzB+9X2QdFEN002mDz99QXfuyCrBhynlGkjppy5SN4raq3bR7wFklVMDxeGAAW8jHMe6uAgOmOfWSkQSInl1mmcXZTMbgYi2ZyiROclZy/iCiDzNQ8bF4SxTNGrDQlsgbJp01EnUaCtydo2HtW1aeasVn+dRsVxu5d8IVVEEdSARBOY6jTmPOpueyIlQax8zHqti2y4Het3alRHiENp4cq/dA0JI05eiTiloISoMiRBiNxP51seyRuOce/xf6T8Kj4s6e8VS4zmLq9jYyNlSu0WKa5dFlToCo9SYifISPnTTB8BsoPEuY8y23uGwpXxzg903WdFmYOm4MAflNRl4PibntT/AJm/rNQW9DHUGBlUNEX3k6zceSs+GwFpGL21AJESOnpsKrlpQcdB/wCsJ+BJHzFR+GB7WJVZI8UEA6EEifXQzUnDf+v/AOd/zoQ2iaRqS7ammSD1KttVntf7Vr0P5VZqR9ouH3LzW8izEySYAmI/sUJHs97WYhrnGBf2KvnZLiymymHeEBtgKykgkkayeRM6Hy8xWN7sreDQpQryJJHxEfymq7h0hVB5AD4CpP1q5GXvHy9Mxj4TFWCoCAHCYy0WcaZDiWGJTq7cTBIwtkXMQRBI2QdBPP19/Q1bAWnUObjAs7ltJgCAANfSmOFwj3DFtGb0G3qdh76eYLshdbW4yoOg8R/T5miHVI2RZSD20gQ43OZ1t8KtFAdxUnCYK5dMW0ZvQae87D31e8F2aw9vUrnPV9flt8qbqoAgCAOQq5uFJ/Ipd2KH8QqXgux9xtbrqg6DxH9B86f4Ps5h7f3M56vr8tvlTiir20WN0VDqz3ZlYgRtWVFFWqpFFFFCEUUUUIRRRRQhFa7iAiCAQdwa2UUISDH9nEaTbOQ9Pu/qP70pdicRfskm4pU5QqssZTlDZR6SZI8tquFYXEBEEAg7g1S6iP42Voqn+V1T2w1u43g0DE6CY3cIQN1Jyzl6GBEit2Dt+BbdwCAzGJAkB1DNO4ZIPSQT0pji+ArOayxttvH3TBkemvr6UmvtfslxclQ5YkhQwJO8dJ56j0qgt2DJH0rgQ8Q0/fXXFSDhntqCSIUTkKgMIUElCB7QEnXpzpBxSzkJXod+vn79/fTu3i7Z3kb+aEOCCDEZTBPTbek/GbmZ3OntRptpoI9wqupEWVlOZuqpjOPpbuFCCQu5WN+Ygxtpz61FxXacR9mhnq0ae4b/ABqff4FYclipBJkw3Ot2F4VZtmVQT1Op907e6qlrtfg2tBLSTzgT5pXwDhrl+/uzOpAO5J3JHLyH9KmWeDRfN4vOrEKB67nnoac2LDuYRWY9FBNPMH2Tvvq5W2PPU/AafOpNa52QS9XHO2i4mJERw3Kv1tw2Ge4YRWY/uifj0q84LstYTVgbh/eOnwGnxmnNq2qiFAAHICBV7cMT+RWc7FAfiFScF2RvNrcK2x09o/AafOn2C7MYe3qVNw9X1Hw2+M09ophtFjdEu6s92q1ogUQAABsBoK2UUVaqkUUUUIRRRRQhFFFFCEUUUUIRRRRQhFFFFCEUUUUIRRRRQhFYXEBEEAg7g1nRQhIMf2dRpNo5D0+6fzH96VWuJcMvKQptsSTplBIPpFdEoqh+Ha7gr2V3NzuqDguyt99Xi2PPU/AfmRT7B9lLCavNw/vGB8B+c1YKK62gxuk8+oXHV3u1jl1K1WbKoMqqFHQCB8q20UVcqUUUUUIRRRRQhFFFFCEUUUUIRRRRQhFFFFCEUUUUIRRRRQhFFFFCEUUUUIRRRRQhFFFFCEUUUUIRRRRQhFFFFCEUUUUIRRRRQhFFFFCEUUUUIRRRRQhFFFFCEUUUUIX/2Q==;" vertex="1" parent="ZejM4U1-Lfs7wTc2lEzZ-43">
          <mxGeometry x="510" y="296" width="85" height="85" as="geometry" />
        </mxCell>
        <mxCell id="ZejM4U1-Lfs7wTc2lEzZ-86" style="edgeStyle=orthogonalEdgeStyle;rounded=0;orthogonalLoop=1;jettySize=auto;html=1;entryX=0.5;entryY=0;entryDx=0;entryDy=0;entryPerimeter=0;" edge="1" parent="1" source="ZejM4U1-Lfs7wTc2lEzZ-84" target="ZejM4U1-Lfs7wTc2lEzZ-28">
          <mxGeometry relative="1" as="geometry" />
        </mxCell>
        <mxCell id="ZejM4U1-Lfs7wTc2lEzZ-87" style="edgeStyle=orthogonalEdgeStyle;rounded=0;orthogonalLoop=1;jettySize=auto;html=1;entryX=0.755;entryY=1.003;entryDx=0;entryDy=0;entryPerimeter=0;" edge="1" parent="1" source="ZejM4U1-Lfs7wTc2lEzZ-84" target="ZejM4U1-Lfs7wTc2lEzZ-43">
          <mxGeometry relative="1" as="geometry" />
        </mxCell>
        <mxCell id="ZejM4U1-Lfs7wTc2lEzZ-84" value="API Packs" style="rounded=1;whiteSpace=wrap;html=1;" vertex="1" parent="1">
          <mxGeometry x="926" y="450" width="120" height="40" as="geometry" />
        </mxCell>
        <mxCell id="ZejM4U1-Lfs7wTc2lEzZ-89" style="edgeStyle=orthogonalEdgeStyle;rounded=0;orthogonalLoop=1;jettySize=auto;html=1;entryX=0.5;entryY=0;entryDx=0;entryDy=0;entryPerimeter=0;" edge="1" parent="1" source="ZejM4U1-Lfs7wTc2lEzZ-88" target="ZejM4U1-Lfs7wTc2lEzZ-24">
          <mxGeometry relative="1" as="geometry" />
        </mxCell>
        <mxCell id="ZejM4U1-Lfs7wTc2lEzZ-90" value="" style="edgeStyle=orthogonalEdgeStyle;rounded=0;orthogonalLoop=1;jettySize=auto;html=1;" edge="1" parent="1" source="ZejM4U1-Lfs7wTc2lEzZ-88">
          <mxGeometry relative="1" as="geometry">
            <mxPoint x="630" y="420" as="targetPoint" />
          </mxGeometry>
        </mxCell>
        <mxCell id="ZejM4U1-Lfs7wTc2lEzZ-88" value="API Market" style="rounded=1;whiteSpace=wrap;html=1;" vertex="1" parent="1">
          <mxGeometry x="570" y="450" width="120" height="40" as="geometry" />
        </mxCell>
        <mxCell id="ZejM4U1-Lfs7wTc2lEzZ-91" value="3 FrontEnd Teams" style="text;html=1;strokeColor=none;fillColor=none;align=left;verticalAlign=middle;whiteSpace=wrap;rounded=0;fontStyle=1;fontSize=14;" vertex="1" parent="1">
          <mxGeometry x="235" y="40" width="160" height="30" as="geometry" />
        </mxCell>
        <mxCell id="ZejM4U1-Lfs7wTc2lEzZ-92" value="Team Vendor Component&lt;br&gt;Team Basket Component&lt;br&gt;Team Packs&amp;nbsp;" style="text;html=1;strokeColor=none;fillColor=none;align=left;verticalAlign=middle;whiteSpace=wrap;rounded=0;" vertex="1" parent="1">
          <mxGeometry x="230" y="70" width="150" height="60" as="geometry" />
        </mxCell>
        <mxCell id="ZejM4U1-Lfs7wTc2lEzZ-93" value="2 BackEnd Teams" style="text;html=1;strokeColor=none;fillColor=none;align=left;verticalAlign=middle;whiteSpace=wrap;rounded=0;fontStyle=1;fontSize=14;" vertex="1" parent="1">
          <mxGeometry x="230" y="140" width="160" height="30" as="geometry" />
        </mxCell>
        <mxCell id="ZejM4U1-Lfs7wTc2lEzZ-94" value="Team Sync Process&lt;br&gt;Team Pack Builder" style="text;html=1;strokeColor=none;fillColor=none;align=left;verticalAlign=middle;whiteSpace=wrap;rounded=0;" vertex="1" parent="1">
          <mxGeometry x="235" y="170" width="150" height="50" as="geometry" />
        </mxCell>
      </root>
    </mxGraphModel>
  </diagram>
</mxfile>
